<?xml version="1.0" encoding="UTF-8" standalone="no"?>
<!-- Generator: Adobe Illustrator 19.0.0, SVG Export Plug-In . SVG Version: 6.00 Build 0)  -->

<svg
   xmlns:dc="http://purl.org/dc/elements/1.1/"
   xmlns:cc="http://creativecommons.org/ns#"
   xmlns:rdf="http://www.w3.org/1999/02/22-rdf-syntax-ns#"
   xmlns:svg="http://www.w3.org/2000/svg"
   xmlns="http://www.w3.org/2000/svg"
   xmlns:sodipodi="http://sodipodi.sourceforge.net/DTD/sodipodi-0.dtd"
   xmlns:inkscape="http://www.inkscape.org/namespaces/inkscape"
   version="1.1"
   id="Layer_1"
   x="0px"
   y="0px"
   viewBox="0 0 14.545884 14.167931"
   xml:space="preserve"
   sodipodi:docname="icoDescargar.svg"
   width="3.8485985mm"
   height="3.7485986mm"
   inkscape:version="0.92.4 (5da689c313, 2019-01-14)"><metadata
   id="metadata41"><rdf:RDF><cc:Work
       rdf:about=""><dc:format>image/svg+xml</dc:format><dc:type
         rdf:resource="http://purl.org/dc/dcmitype/StillImage" /><dc:title></dc:title></cc:Work></rdf:RDF></metadata><defs
   id="defs39" /><sodipodi:namedview
   pagecolor="#ffffff"
   bordercolor="#666666"
   borderopacity="1"
   objecttolerance="10"
   gridtolerance="10"
   guidetolerance="10"
   inkscape:pageopacity="0"
   inkscape:pageshadow="2"
   inkscape:window-width="1440"
   inkscape:window-height="877"
   id="namedview37"
   showgrid="false"
   units="mm"
   fit-margin-top="-0.2"
   fit-margin-left="0"
   fit-margin-right="-0.1"
   fit-margin-bottom="0"
   inkscape:zoom="18.668115"
   inkscape:cx="15.969401"
   inkscape:cy="2.2753488"
   inkscape:window-x="-8"
   inkscape:window-y="-8"
   inkscape:window-maximized="1"
   inkscape:current-layer="Layer_1" />
<g
   id="g4"
   transform="matrix(0.05217158,0,0,0.05217158,0,-0.75590551)"
   style="fill:#84bd5a;fill-opacity:1">
	<path
   style="fill:#84bd5a;fill-opacity:1"
   d="m 129.162,204.922 c 10.62,10.62 16.672,11.031 27.72,0 l 81.212,-83.242 c 7.625,-12.846 1.386,-23.349 -13.856,-23.349 H 187.721 V 17.878 C 187.723,8.01 179.713,0 169.845,0 H 116.21 C 106.341,0 98.332,8.01 98.332,17.878 V 98.331 H 61.806 c -15.241,0 -21.481,10.512 -13.856,23.349 z m 139.014,36.436 H 17.878 C 8.01,241.358 0,249.367 0,259.236 v 8.939 c 0,9.878 8.01,17.878 17.878,17.878 h 250.297 c 9.869,0 17.878,-8.001 17.878,-17.878 v -8.939 c 10e-4,-9.869 -8.009,-17.878 -17.877,-17.878 z"
   id="path2"
   inkscape:connector-curvature="0" />
</g>
<g
   id="g6"
   transform="translate(0,-0.75590551)">
</g>
<g
   id="g8"
   transform="translate(0,-0.75590551)">
</g>
<g
   id="g10"
   transform="translate(0,-0.75590551)">
</g>
<g
   id="g12"
   transform="translate(0,-0.75590551)">
</g>
<g
   id="g14"
   transform="translate(0,-0.75590551)">
</g>
<g
   id="g16"
   transform="translate(0,-0.75590551)">
</g>
<g
   id="g18"
   transform="translate(0,-0.75590551)">
</g>
<g
   id="g20"
   transform="translate(0,-0.75590551)">
</g>
<g
   id="g22"
   transform="translate(0,-0.75590551)">
</g>
<g
   id="g24"
   transform="translate(0,-0.75590551)">
</g>
<g
   id="g26"
   transform="translate(0,-0.75590551)">
</g>
<g
   id="g28"
   transform="translate(0,-0.75590551)">
</g>
<g
   id="g30"
   transform="translate(0,-0.75590551)">
</g>
<g
   id="g32"
   transform="translate(0,-0.75590551)">
</g>
<g
   id="g34"
   transform="translate(0,-0.75590551)">
</g>
</svg>