<?xml version="1.0" encoding="UTF-8" standalone="no"?>
<!-- Generator: Adobe Illustrator 19.0.0, SVG Export Plug-In . SVG Version: 6.00 Build 0)  -->

<svg
   xmlns:dc="http://purl.org/dc/elements/1.1/"
   xmlns:cc="http://creativecommons.org/ns#"
   xmlns:rdf="http://www.w3.org/1999/02/22-rdf-syntax-ns#"
   xmlns:svg="http://www.w3.org/2000/svg"
   xmlns="http://www.w3.org/2000/svg"
   xmlns:sodipodi="http://sodipodi.sourceforge.net/DTD/sodipodi-0.dtd"
   xmlns:inkscape="http://www.inkscape.org/namespaces/inkscape"
   version="1.1"
   id="Capa_1"
   x="0px"
   y="0px"
   viewBox="0 0 22.519642 17.919601"
   xml:space="preserve"
   sodipodi:docname="icoExpediente_32.svg"
   width="32.170918"
   height="25.59943"
   inkscape:version="0.92.4 (5da689c313, 2019-01-14)"><metadata
   id="metadata57"><rdf:RDF><cc:Work
       rdf:about=""><dc:format>image/svg+xml</dc:format><dc:type
         rdf:resource="http://purl.org/dc/dcmitype/StillImage" /><dc:title></dc:title></cc:Work></rdf:RDF></metadata><defs
   id="defs55" /><sodipodi:namedview
   pagecolor="#ffffff"
   bordercolor="#666666"
   borderopacity="1"
   objecttolerance="10"
   gridtolerance="10"
   guidetolerance="10"
   inkscape:pageopacity="0"
   inkscape:pageshadow="2"
   inkscape:window-width="1440"
   inkscape:window-height="877"
   id="namedview53"
   showgrid="false"
   scale-x="0.7"
   fit-margin-top="0"
   fit-margin-left="0"
   fit-margin-right="0"
   fit-margin-bottom="0"
   inkscape:zoom="4.0689655"
   inkscape:cx="29.000209"
   inkscape:cy="43.848824"
   inkscape:window-x="-8"
   inkscape:window-y="-8"
   inkscape:window-maximized="1"
   inkscape:current-layer="Capa_1" />
<path
   style="fill:#efce4a;stroke-width:0.38475251"
   d="M 17.986216,17.919602 H 0.60769721 c -0.39991677,0 -0.69073003,-0.37288 -0.58628574,-0.752242 L 3.9685511,6.5410357 c 0.071442,-0.260025 0.3117798,-0.440746 0.5862857,-0.440746 H 21.933356 c 0.399916,0 0.586285,0.375169 0.586285,0.752242 L 18.572502,17.478856 c -0.07145,0.260025 -0.31178,0.440746 -0.586286,0.440746 z"
   id="path2"
   inkscape:connector-curvature="0" />
<path
   style="fill:#f4efdc;stroke-width:0.38475251"
   d="m 3.9685511,6.5410357 c 0.071442,-0.260406 0.3117798,-0.440746 0.5862857,-0.440746 H 20.578298 V 3.4314133 H 3.494475 L 1.1648627,5.7190227 v 8.3699793 z"
   id="path4"
   inkscape:connector-curvature="0" />
<path
   style="fill:#ebba16;stroke-width:0.38475251"
   d="M 9.1519383,1.9063409 7.7654305,0 H 0.67253809 C 0.30135321,0 5.6695354e-5,0.2954828 5.6695354e-5,0.6603562 V 16.951181 C 0.02684724,16.951944 0.05363777,16.953469 0.07965177,16.954994 L 1.1648627,14.04935 V 5.7190227 L 1.9414002,4.9564857 V 1.9063409 Z"
   id="path6"
   inkscape:connector-curvature="0" />
<polygon
   style="fill:#d1bf86"
   points="5,18.5 9,14.5 51,14.5 51,10.5 5,10.5 "
   id="polygon8"
   transform="matrix(0.3882687,0,0,0.38126813,5.6695354e-5,-2.0969751)" />
<rect
   x="10.87158"
   y="5.3377533"
   style="fill:#bfbaa5;stroke-width:0.38475251"
   width="0.77653736"
   height="0.76253629"
   id="rect10" />
<rect
   x="13.589461"
   y="5.3377533"
   style="fill:#bfbaa5;stroke-width:0.38475251"
   width="0.77653736"
   height="0.76253629"
   id="rect12" />
<rect
   x="16.307344"
   y="5.3377533"
   style="fill:#bfbaa5;stroke-width:0.38475251"
   width="0.77653736"
   height="0.76253629"
   id="rect14" />
<rect
   x="5.4358187"
   y="5.3377533"
   style="fill:#bfbaa5;stroke-width:0.38475251"
   width="0.77653736"
   height="0.76253629"
   id="rect16" />
<rect
   x="8.1536999"
   y="5.3377533"
   style="fill:#bfbaa5;stroke-width:0.38475251"
   width="0.77653736"
   height="0.76253629"
   id="rect18" />
<polygon
   style="fill:#cec9ae"
   points="3,20.5 9,20.5 9,14.5 "
   id="polygon20"
   transform="matrix(0.3882687,0,0,0.38126813,5.6695354e-5,-2.0969751)" />
<g
   id="g22"
   transform="translate(1.4601705e-4,-33.074576)">
</g>
<g
   id="g24"
   transform="translate(1.4601705e-4,-33.074576)">
</g>
<g
   id="g26"
   transform="translate(1.4601705e-4,-33.074576)">
</g>
<g
   id="g28"
   transform="translate(1.4601705e-4,-33.074576)">
</g>
<g
   id="g30"
   transform="translate(1.4601705e-4,-33.074576)">
</g>
<g
   id="g32"
   transform="translate(1.4601705e-4,-33.074576)">
</g>
<g
   id="g34"
   transform="translate(1.4601705e-4,-33.074576)">
</g>
<g
   id="g36"
   transform="translate(1.4601705e-4,-33.074576)">
</g>
<g
   id="g38"
   transform="translate(1.4601705e-4,-33.074576)">
</g>
<g
   id="g40"
   transform="translate(1.4601705e-4,-33.074576)">
</g>
<g
   id="g42"
   transform="translate(1.4601705e-4,-33.074576)">
</g>
<g
   id="g44"
   transform="translate(1.4601705e-4,-33.074576)">
</g>
<g
   id="g46"
   transform="translate(1.4601705e-4,-33.074576)">
</g>
<g
   id="g48"
   transform="translate(1.4601705e-4,-33.074576)">
</g>
<g
   id="g50"
   transform="translate(1.4601705e-4,-33.074576)">
</g>
</svg>