<?xml version="1.0" encoding="UTF-8" standalone="no"?>
<!-- Generator: Adobe Illustrator 19.0.0, SVG Export Plug-In . SVG Version: 6.00 Build 0)  -->

<svg
   xmlns:dc="http://purl.org/dc/elements/1.1/"
   xmlns:cc="http://creativecommons.org/ns#"
   xmlns:rdf="http://www.w3.org/1999/02/22-rdf-syntax-ns#"
   xmlns:svg="http://www.w3.org/2000/svg"
   xmlns="http://www.w3.org/2000/svg"
   xmlns:sodipodi="http://sodipodi.sourceforge.net/DTD/sodipodi-0.dtd"
   xmlns:inkscape="http://www.inkscape.org/namespaces/inkscape"
   version="1.1"
   id="Capa_1"
   x="0px"
   y="0px"
   viewBox="0 0 32.579666 32.579666"
   xml:space="preserve"
   sodipodi:docname="icoPrevio.svg"
   width="32.579666"
   height="32.579666"
   inkscape:version="0.92.4 (5da689c313, 2019-01-14)"><metadata
   id="metadata97"><rdf:RDF><cc:Work
       rdf:about=""><dc:format>image/svg+xml</dc:format><dc:type
         rdf:resource="http://purl.org/dc/dcmitype/StillImage" /><dc:title /></cc:Work></rdf:RDF></metadata><defs
   id="defs95" /><sodipodi:namedview
   pagecolor="#ffffff"
   bordercolor="#666666"
   borderopacity="1"
   objecttolerance="10"
   gridtolerance="10"
   guidetolerance="10"
   inkscape:pageopacity="0"
   inkscape:pageshadow="2"
   inkscape:window-width="1440"
   inkscape:window-height="877"
   id="namedview93"
   showgrid="false"
   fit-margin-top="0"
   fit-margin-left="0"
   fit-margin-right="0"
   fit-margin-bottom="0"
   inkscape:zoom="1.3037281"
   inkscape:cx="-106.46818"
   inkscape:cy="-134.53218"
   inkscape:window-x="-8"
   inkscape:window-y="-8"
   inkscape:window-maximized="1"
   inkscape:current-layer="Capa_1" />
<circle
   style="fill:#c3d9f8;stroke-width:0.06363218;fill-opacity:1"
   cx="16.989786"
   cy="16.989786"
   r="15.58988"
   id="circle2" />
<path
   style="fill:#eef6ff;stroke-width:0.06363218"
   d="m 15.377284,15.377094 c 1.204557,-1.20443 2.805924,-1.867731 4.509167,-1.867731 1.160395,0 2.273258,0.308106 3.245812,0.885186 V 3.421056 H 0 v 20.165668 c 0,0.349977 0.28634471,0.636323 0.63632161,0.636323 H 15.212223 c -2.319457,-2.497373 -2.26467,-6.416096 0.165061,-8.845953 z"
   id="path4"
   inkscape:connector-curvature="0" />
<path
   style="fill:#c3ddf4;stroke-width:0.06363218"
   d="M 1.4431774,23.586724 V 3.421056 H 0 v 20.165668 c 0,0.349977 0.28634471,0.636323 0.63632161,0.636323 H 2.079499 c -0.3499769,0 -0.6363216,-0.286346 -0.6363216,-0.636323 z"
   id="path6"
   inkscape:connector-curvature="0" />
<path
   style="fill:#293d7c;stroke-width:0.06363218"
   d="M 22.768542,0 H 0.3637214 C 0.1636619,0 0,0.1636619 0,0.3637214 V 3.6014529 H 23.132263 V 0.3637214 C 23.132263,0.1636619 22.968601,0 22.768542,0 Z"
   id="path8"
   inkscape:connector-curvature="0" />
<path
   style="fill:#1a2b63;stroke-width:0.06363218"
   d="M 1.8068987,0 H 0.3637214 C 0.1636619,0 0,0.1636619 0,0.3637214 V 3.6014529 H 1.4431774 V 0.3637214 C 1.4431774,0.1636619 1.6068392,0 1.8068987,0 Z"
   id="path10"
   inkscape:connector-curvature="0" />
<path
   style="fill:#69cdff;stroke-width:0.06363218"
   d="m 10.070363,11.365658 c 0,0.17499 -0.1431717,0.318161 -0.3181615,0.318161 H 2.6608423 c -0.1749872,0 -0.3181607,-0.143171 -0.3181607,-0.318161 V 6.2802399 c 0,-0.1749895 0.1431706,-0.3181608 0.3181607,-0.3181608 h 7.0912953 c 0.1749898,0 0.3181614,0.1431707 0.3181614,0.3181608 v 5.0854181 z"
   id="path12"
   inkscape:connector-curvature="0" />
<path
   style="fill:#52bbef;stroke-width:0.06363218"
   d="M 3.785859,11.365658 V 6.2802399 c 0,-0.1749895 0.1431706,-0.3181608 0.3181608,-0.3181608 H 2.6608423 c -0.1749872,0 -0.3181607,0.1431707 -0.3181607,0.3181608 v 5.0854181 c 0,0.17499 0.1431706,0.318161 0.3181607,0.318161 h 1.4431775 c -0.1749897,0 -0.3181608,-0.143171 -0.3181608,-0.318161 z"
   id="path14"
   inkscape:connector-curvature="0" />
<path
   style="fill:#ff9518;stroke-width:0.06363218"
   d="M 13.81766,17.930779 H 2.6608423 c -0.1749872,0 -0.3181607,0.143166 -0.3181607,0.318162 v 3.042188 c 0,0.174991 0.1431706,0.318161 0.3181607,0.318161 H 13.748491 c -0.335658,-1.20322 -0.312815,-2.486298 0.06917,-3.678511 z"
   id="path16"
   inkscape:connector-curvature="0" />
<path
   style="fill:#ef8318;stroke-width:0.06363218"
   d="m 3.785859,21.291129 v -3.042188 c 0,-0.17499 0.1431706,-0.318162 0.3181608,-0.318162 H 2.6608423 c -0.1749872,0 -0.3181607,0.143166 -0.3181607,0.318162 v 3.042188 c 0,0.174991 0.1431706,0.318161 0.3181607,0.318161 h 1.4431775 c -0.1749897,0 -0.3181608,-0.143166 -0.3181608,-0.318161 z"
   id="path18"
   inkscape:connector-curvature="0" />
<path
   style="fill:#ffd00d;stroke-width:0.06363218"
   d="m 13.81766,17.930779 h -2.309784 v 3.678511 h 2.240615 c -0.335658,-1.20322 -0.312815,-2.486298 0.06917,-3.678511 z"
   id="path20"
   inkscape:connector-curvature="0" />
<g
   id="g34"
   transform="scale(0.06363218)">
	<path
   style="fill:#91e0e8"
   d="M 320.754,101.196 H 198.165 c -4.142,0 -7.5,-3.358 -7.5,-7.5 0,-4.142 3.358,-7.5 7.5,-7.5 h 122.589 c 4.143,0 7.5,3.358 7.5,7.5 0,4.142 -3.357,7.5 -7.5,7.5 z"
   id="path22"
   inkscape:connector-curvature="0" />
	<path
   style="fill:#91e0e8"
   d="M 320.754,131.169 H 198.165 c -4.142,0 -7.5,-3.358 -7.5,-7.5 0,-4.142 3.358,-7.5 7.5,-7.5 h 122.589 c 4.143,0 7.5,3.358 7.5,7.5 0,4.142 -3.357,7.5 -7.5,7.5 z"
   id="path24"
   inkscape:connector-curvature="0" />
	<path
   style="fill:#91e0e8"
   d="M 320.754,161.142 H 198.165 c -4.142,0 -7.5,-3.358 -7.5,-7.5 0,-4.142 3.358,-7.5 7.5,-7.5 h 122.589 c 4.143,0 7.5,3.358 7.5,7.5 0,4.142 -3.357,7.5 -7.5,7.5 z"
   id="path26"
   inkscape:connector-curvature="0" />
	<path
   style="fill:#91e0e8"
   d="M 320.754,191.115 H 198.165 c -4.142,0 -7.5,-3.358 -7.5,-7.5 0,-4.142 3.358,-7.5 7.5,-7.5 h 122.589 c 4.143,0 7.5,3.358 7.5,7.5 0,4.142 -3.357,7.5 -7.5,7.5 z"
   id="path28"
   inkscape:connector-curvature="0" />
	<path
   style="fill:#91e0e8"
   d="M 299.459,213.148 H 36.816 c -4.143,0 -7.5,3.358 -7.5,7.5 0,4.142 3.357,7.5 7.5,7.5 H 258.39 c 12.387,-7.981 26.352,-13.096 41.069,-15 z"
   id="path30"
   inkscape:connector-curvature="0" />
	<path
   style="fill:#91e0e8"
   d="M 239.711,243.662 H 36.816 c -4.143,0 -7.5,3.358 -7.5,7.5 0,4.142 3.357,7.5 7.5,7.5 h 191.188 c 3.362,-5.275 7.262,-10.303 11.707,-15 z"
   id="path32"
   inkscape:connector-curvature="0" />
</g>
<path
   style="fill:#e26693;stroke-width:0.06363218"
   d="m 2.2204442,2.2023092 c -0.1259278,0 -0.2488018,-0.050906 -0.3378868,-0.1394181 -0.088513,-0.089086 -0.1393549,-0.211895 -0.1393549,-0.337823 0,-0.1254194 0.050905,-0.2481656 0.1393549,-0.3372506 0.089021,-0.089085 0.2118951,-0.1399909 0.3378868,-0.1399909 0.1254193,0 0.2488018,0.050842 0.3372504,0.1399909 0.089086,0.089085 0.139991,0.2118951 0.139991,0.3372506 0,0.1259277 -0.050904,0.2488017 -0.139991,0.337823 -0.08845,0.088513 -0.2118939,0.1394181 -0.3372504,0.1394181 z"
   id="path36"
   inkscape:connector-curvature="0" />
<path
   style="fill:#ffaf10;stroke-width:0.06363218"
   d="m 3.7854773,2.2023092 c -0.1254194,0 -0.248801,-0.050906 -0.3373142,-0.1400541 C 3.3591402,1.973807 3.3082367,1.8509965 3.3082367,1.7250683 c 0,-0.1254193 0.050904,-0.2481655 0.1399264,-0.3372504 0.089086,-0.089085 0.211894,-0.139991 0.3373142,-0.139991 0.1259278,0 0.2487381,0.050842 0.3378867,0.139991 0.088446,0.089085 0.1393549,0.211895 0.1393549,0.3372504 0,0.1253549 -0.05097,0.2488019 -0.1393549,0.3371868 -0.089147,0.089148 -0.2118939,0.1400541 -0.3378867,0.1400541 z"
   id="path38"
   inkscape:connector-curvature="0" />
<path
   style="fill:#37c47a;stroke-width:0.06363218"
   d="m 5.3511464,2.2023092 c -0.1259907,0 -0.2488009,-0.050906 -0.3372502,-0.1394181 -0.089085,-0.089086 -0.1399909,-0.211895 -0.1399909,-0.337823 0,-0.1254194 0.050904,-0.2481656 0.1399909,-0.3372506 0.08845,-0.089085 0.2112578,-0.1399909 0.3372502,-0.1399909 0.1253549,0 0.2488012,0.050842 0.3372505,0.1399909 0.089086,0.089085 0.1399909,0.2118951 0.1399909,0.3372506 0,0.1259277 -0.050909,0.2488017 -0.1399909,0.337823 -0.089086,0.088513 -0.2119582,0.1394181 -0.3372505,0.1394181 z"
   id="path40"
   inkscape:connector-curvature="0" />
<path
   style="fill:#445ea0;stroke-width:0.06363218"
   d="m 26.074423,24.766081 -1.307958,1.308024 2.573093,2.573093 c 0.461332,-0.409855 0.898103,-0.846688 1.308024,-1.308021 z"
   id="path42"
   inkscape:connector-curvature="0" />
<path
   style="fill:#293d7c;stroke-width:0.06363218"
   d="m 26.593662,23.977298 -1.083973,-1.08391 c -0.288318,0.539982 -0.659548,1.047067 -1.114328,1.501782 -0.449625,0.449625 -0.954609,0.823721 -1.499556,1.116174 l 1.081937,1.081873 c 0.123705,0.12378 0.32618,0.12378 0.449944,0 l 2.165976,-2.165976 c 0.123688,-0.123704 0.123688,-0.326179 0,-0.449943 z"
   id="path44"
   inkscape:connector-curvature="0" />
<path
   style="fill:#1a2b63;stroke-width:0.06363218"
   d="m 24.720076,25.850821 -0.925213,-0.925213 c -0.284498,0.221511 -0.58516,0.417173 -0.899121,0.58567 l 1.081936,1.081874 c 0.123703,0.123781 0.326181,0.123781 0.449944,0 l 0.742396,-0.742398 c -0.123749,0.123826 -0.326175,0.123826 -0.449942,6.7e-5 z"
   id="path46"
   inkscape:connector-curvature="0" />
<path
   style="fill:#445ea0;stroke-width:0.06363218"
   d="m 24.485402,15.287055 c 2.539939,2.53994 2.539939,6.658085 -6.5e-5,9.198092 -2.539814,2.539749 -6.657897,2.539812 -9.198029,-6.5e-5 -2.539941,-2.539942 -2.539813,-6.658087 0,-9.197964 2.540132,-2.540006 6.658215,-2.540069 9.198094,-6.3e-5 z"
   id="path48"
   inkscape:connector-curvature="0" />
<path
   style="fill:#69cdff;stroke-width:0.06363218"
   d="m 23.11101,23.110628 c -1.78081,1.780874 -4.668246,1.780874 -6.449247,-1.27e-4 -1.78081,-1.780683 -1.780873,-4.668183 0,-6.449056 1.78081,-1.78081 4.668374,-1.780746 6.449182,0 1.780938,1.780936 1.780938,4.668309 6.5e-5,6.449183 z"
   id="path50"
   inkscape:connector-curvature="0" />
<path
   style="fill:#52bbef;stroke-width:0.06363218"
   d="m 23.11101,23.110628 c 0.162205,-0.162205 0.309188,-0.333751 0.441797,-0.512621 -1.7852,1.323867 -4.317761,1.176813 -5.936562,-0.441988 -1.618675,-1.618548 -1.765665,-4.151171 -0.441862,-5.936373 -0.178934,0.132675 -0.350422,0.279665 -0.51262,0.441799 -1.780873,1.780873 -1.78081,4.668309 0,6.449056 1.781001,1.781001 4.668437,1.781001 6.449247,1.27e-4 z"
   id="path52"
   inkscape:connector-curvature="0" />
<path
   style="fill:#445ea0;stroke-width:0.06363218"
   d="M 22.768542,0 H 7.3757308 V 3.6014529 H 23.132263 V 0.3637214 C 23.132263,0.1636619 22.968601,0 22.768542,0 Z"
   id="path54"
   inkscape:connector-curvature="0" />
<g
   id="g60"
   transform="scale(0.06363218)">
	<circle
   style="fill:#d9eafc"
   cx="324.82999"
   cy="264.53"
   r="12"
   id="circle56" />
	<circle
   style="fill:#d9eafc"
   cx="350.04001"
   cy="277"
   r="8.5"
   id="circle58" />
</g>
<g
   id="g62">
</g>
<g
   id="g64">
</g>
<g
   id="g66">
</g>
<g
   id="g68">
</g>
<g
   id="g70">
</g>
<g
   id="g72">
</g>
<g
   id="g74">
</g>
<g
   id="g76">
</g>
<g
   id="g78">
</g>
<g
   id="g80">
</g>
<g
   id="g82">
</g>
<g
   id="g84">
</g>
<g
   id="g86">
</g>
<g
   id="g88">
</g>
<g
   id="g90">
</g>
</svg>