<?xml version="1.0" encoding="UTF-8" standalone="no"?>
<!-- Generator: Adobe Illustrator 18.0.0, SVG Export Plug-In . SVG Version: 6.00 Build 0)  -->

<svg
   xmlns:dc="http://purl.org/dc/elements/1.1/"
   xmlns:cc="http://creativecommons.org/ns#"
   xmlns:rdf="http://www.w3.org/1999/02/22-rdf-syntax-ns#"
   xmlns:svg="http://www.w3.org/2000/svg"
   xmlns="http://www.w3.org/2000/svg"
   xmlns:sodipodi="http://sodipodi.sourceforge.net/DTD/sodipodi-0.dtd"
   xmlns:inkscape="http://www.inkscape.org/namespaces/inkscape"
   version="1.1"
   id="Capa_1"
   x="0px"
   y="0px"
   viewBox="0 0 16.260624 16.260624"
   xml:space="preserve"
   sodipodi:docname="icoPdfSfDesable.svg"
   width="16.260624"
   height="16.260624"
   inkscape:version="0.92.4 (5da689c313, 2019-01-14)"><metadata
   id="metadata55"><rdf:RDF><cc:Work
       rdf:about=""><dc:format>image/svg+xml</dc:format><dc:type
         rdf:resource="http://purl.org/dc/dcmitype/StillImage" /><dc:title /></cc:Work></rdf:RDF></metadata><defs
   id="defs53">
	
	
	
	
	
</defs><sodipodi:namedview
   pagecolor="#ffffff"
   bordercolor="#666666"
   borderopacity="1"
   objecttolerance="10"
   gridtolerance="10"
   guidetolerance="10"
   inkscape:pageopacity="0"
   inkscape:pageshadow="2"
   inkscape:window-width="1366"
   inkscape:window-height="705"
   id="namedview51"
   showgrid="false"
   fit-margin-top="0"
   fit-margin-left="0"
   fit-margin-right="0"
   fit-margin-bottom="0"
   inkscape:zoom="11.9198"
   inkscape:cx="-0.11352789"
   inkscape:cy="8.703457"
   inkscape:window-x="-8"
   inkscape:window-y="-8"
   inkscape:window-maximized="1"
   inkscape:current-layer="Capa_1" />

<g
   id="g20"
   transform="translate(105.00639,-43.661018)">
</g>
<g
   id="g22"
   transform="translate(105.00639,-43.661018)">
</g>
<g
   id="g24"
   transform="translate(105.00639,-43.661018)">
</g>
<g
   id="g26"
   transform="translate(105.00639,-43.661018)">
</g>
<g
   id="g28"
   transform="translate(105.00639,-43.661018)">
</g>
<g
   id="g30"
   transform="translate(105.00639,-43.661018)">
</g>
<g
   id="g32"
   transform="translate(105.00639,-43.661018)">
</g>
<g
   id="g34"
   transform="translate(105.00639,-43.661018)">
</g>
<g
   id="g36"
   transform="translate(105.00639,-43.661018)">
</g>
<g
   id="g38"
   transform="translate(105.00639,-43.661018)">
</g>
<g
   id="g40"
   transform="translate(105.00639,-43.661018)">
</g>
<g
   id="g42"
   transform="translate(105.00639,-43.661018)">
</g>
<g
   id="g44"
   transform="translate(105.00639,-43.661018)">
</g>
<g
   id="g46"
   transform="translate(105.00639,-43.661018)">
</g>
<g
   id="g48"
   transform="translate(105.00639,-43.661018)">
</g>
<rect
   style="fill:none;fill-opacity:1;stroke:none;stroke-width:2.15872407;stroke-miterlimit:4;stroke-dasharray:none;stroke-opacity:1"
   id="rect4567"
   width="16.260624"
   height="16.260624"
   x="0"
   y="0" /><path
   inkscape:connector-curvature="0"
   id="path2"
   d="M 10.704259,0.10910937 H 2.3902831 c -0.2314689,0 -0.4191077,0.18763883 -0.4191077,0.55174409 V 15.865041 c 0,0.09883 0.1876388,0.286472 0.4191077,0.286472 H 13.870342 c 0.231469,0 0.419107,-0.187639 0.419107,-0.286472 V 3.8269364 c 0,-0.1993842 -0.02664,-0.2635538 -0.07362,-0.3108216 L 10.882444,0.18273254 c -0.04727,-0.0469813 -0.111437,-0.0736232 -0.178185,-0.0736232 z"
   style="fill:#e9e9e0;stroke-width:0.28647149" /><polygon
   id="polygon4"
   points="37.5,0.151 37.5,12 49.349,12 "
   style="fill:#d9d7ca"
   transform="matrix(0.28647149,0,0,0.28647149,0.10911067,0.10910937)" /><path
   inkscape:connector-curvature="0"
   id="path6"
   d="m 5.6993153,9.6554853 v 0 c -0.099692,0 -0.1953735,-0.032371 -0.2770179,-0.09339 C 5.1240806,9.3383614 5.0839746,9.0894176 5.1028817,8.9198265 5.1550195,8.4534509 5.7316866,7.9653035 6.8174136,7.467989 7.2482667,6.523779 7.6582074,5.3604183 7.9025676,4.3884205 7.616669,3.7662044 7.3387917,2.9589278 7.541327,2.4853904 7.6123719,2.3195234 7.7008916,2.19233 7.8661857,2.1373275 c 0.065315,-0.021772 0.2303231,-0.049273 0.291055,-0.049273 0.1443816,0 0.2712885,0.18592 0.3612406,0.3005086 0.084509,0.1077133 0.2761585,0.3360311 -0.1068539,1.9485791 0.3861636,0.7975366 0.9333241,1.6099698 1.4575669,2.1662974 0.3755637,-0.067894 0.6987037,-0.1025568 0.9619717,-0.1025568 0.448614,0 0.720475,0.1045621 0.83134,0.3199887 0.09167,0.1781852 0.05414,0.38645 -0.111724,0.6187784 -0.159565,0.2231613 -0.379575,0.3411875 -0.635967,0.3411875 -0.348349,0 -0.753993,-0.2200101 -1.2063312,-0.6545873 C 8.8957642,7.1961276 7.9466842,7.4992144 7.1795135,7.8346725 6.9400233,8.3428729 6.7105597,8.7522407 6.496852,9.0524628 6.2032187,9.4635494 5.9499779,9.6554853 5.6993153,9.6554853 Z M 6.4619024,8.1870324 C 5.8497129,8.5310847 5.6001962,8.8138321 5.5821485,8.9731102 5.5792838,8.9994656 5.571549,9.0687917 5.7056177,9.1713485 5.748302,9.1578843 5.9975321,9.0441551 6.4619024,8.1870324 Z M 10.368514,6.9145261 c 0.233474,0.1796176 0.290482,0.2704291 0.443172,0.2704291 0.06703,0 0.25811,-0.00286 0.34663,-0.126334 0.04268,-0.059872 0.0593,-0.09826 0.06589,-0.1188856 -0.03524,-0.018621 -0.08193,-0.056435 -0.336604,-0.056435 -0.144668,2.865e-4 -0.326577,0.00659 -0.519086,0.031225 z M 8.2285721,5.0289707 C 8.023745,5.7377012 7.7533159,6.5028666 7.4625473,7.1958411 8.0612728,6.9635127 8.712136,6.7606909 9.3234661,6.6171687 8.9367296,6.1679814 8.5502796,5.6070702 8.2285721,5.0289707 Z M 8.0546839,2.604849 C 8.0266097,2.6143026 7.6736768,3.1081794 8.0821852,3.5261413 8.3540466,2.9202541 8.0670022,2.6008384 8.0546839,2.604849 Z"
   style="fill:#cccccc;stroke-width:0.28647149" /><path
   inkscape:connector-curvature="0"
   id="path8"
   d="M 13.870342,16.151513 H 2.3902831 c -0.2314689,0 -0.4191077,-0.187639 -0.4191077,-0.419108 V 11.281497 H 14.289449 v 4.450908 c 0,0.231469 -0.187638,0.419108 -0.419107,0.419108 z"
   style="fill:#999999;stroke-width:0.28647149" /><g
   id="g16"
   transform="matrix(0.28647149,0,0,0.28647149,0.10911067,0.10910937)">
		<path
   inkscape:connector-curvature="0"
   id="path10"
   d="M 17.385,53 H 15.744 V 42.924 h 2.898 c 0.428,0 0.852,0.068 1.271,0.205 0.419,0.137 0.795,0.342 1.128,0.615 0.333,0.273 0.602,0.604 0.807,0.991 0.205,0.387 0.308,0.822 0.308,1.306 0,0.511 -0.087,0.973 -0.26,1.388 -0.173,0.415 -0.415,0.764 -0.725,1.046 -0.31,0.282 -0.684,0.501 -1.121,0.656 -0.437,0.155 -0.921,0.232 -1.449,0.232 H 17.384 V 53 Z m 0,-8.832 v 3.992 h 1.504 c 0.2,0 0.398,-0.034 0.595,-0.103 0.196,-0.068 0.376,-0.18 0.54,-0.335 0.164,-0.155 0.296,-0.371 0.396,-0.649 0.1,-0.278 0.15,-0.622 0.15,-1.032 0,-0.164 -0.023,-0.354 -0.068,-0.567 -0.046,-0.214 -0.139,-0.419 -0.28,-0.615 -0.142,-0.196 -0.34,-0.36 -0.595,-0.492 -0.255,-0.132 -0.593,-0.198 -1.012,-0.198 h -1.23 z"
   style="fill:#ffffff" />
		<path
   inkscape:connector-curvature="0"
   id="path12"
   d="m 32.219,47.682 c 0,0.829 -0.089,1.538 -0.267,2.126 -0.178,0.588 -0.403,1.08 -0.677,1.477 -0.274,0.397 -0.581,0.709 -0.923,0.937 -0.342,0.228 -0.672,0.398 -0.991,0.513 -0.319,0.114 -0.611,0.187 -0.875,0.219 C 28.222,52.984 28.026,53 27.898,53 H 24.084 V 42.924 h 3.035 c 0.848,0 1.593,0.135 2.235,0.403 0.642,0.268 1.176,0.627 1.6,1.073 0.424,0.446 0.74,0.955 0.95,1.524 0.21,0.57 0.315,1.156 0.315,1.758 z m -4.867,4.115 c 1.112,0 1.914,-0.355 2.406,-1.066 0.492,-0.711 0.738,-1.741 0.738,-3.09 0,-0.419 -0.05,-0.834 -0.15,-1.244 -0.101,-0.41 -0.294,-0.781 -0.581,-1.114 -0.287,-0.333 -0.677,-0.602 -1.169,-0.807 -0.492,-0.205 -1.13,-0.308 -1.914,-0.308 h -0.957 v 7.629 z"
   style="fill:#ffffff" />
		<path
   inkscape:connector-curvature="0"
   id="path14"
   d="m 36.266,44.168 v 3.172 h 4.211 v 1.121 H 36.266 V 53 H 34.598 V 42.924 H 40.9 v 1.244 z"
   style="fill:#ffffff" />
	</g></svg>