<?xml version="1.0" encoding="UTF-8" standalone="no"?>
<!-- Generator: Adobe Illustrator 16.0.0, SVG Export Plug-In . SVG Version: 6.00 Build 0)  -->

<svg
   xmlns:dc="http://purl.org/dc/elements/1.1/"
   xmlns:cc="http://creativecommons.org/ns#"
   xmlns:rdf="http://www.w3.org/1999/02/22-rdf-syntax-ns#"
   xmlns:svg="http://www.w3.org/2000/svg"
   xmlns="http://www.w3.org/2000/svg"
   xmlns:sodipodi="http://sodipodi.sourceforge.net/DTD/sodipodi-0.dtd"
   xmlns:inkscape="http://www.inkscape.org/namespaces/inkscape"
   version="1.1"
   id="Capa_1"
   x="0px"
   y="0px"
   width="27.59956"
   height="25.590334"
   viewBox="0 0 27.599559 25.590333"
   xml:space="preserve"
   sodipodi:docname="icoRefresh.svg"
   inkscape:version="0.92.4 (5da689c313, 2019-01-14)"><metadata
   id="metadata45"><rdf:RDF><cc:Work
       rdf:about=""><dc:format>image/svg+xml</dc:format><dc:type
         rdf:resource="http://purl.org/dc/dcmitype/StillImage" /><dc:title></dc:title></cc:Work></rdf:RDF></metadata><defs
   id="defs43" /><sodipodi:namedview
   pagecolor="#ffffff"
   bordercolor="#666666"
   borderopacity="1"
   objecttolerance="10"
   gridtolerance="10"
   guidetolerance="10"
   inkscape:pageopacity="0"
   inkscape:pageshadow="2"
   inkscape:window-width="640"
   inkscape:window-height="480"
   id="namedview41"
   showgrid="false"
   fit-margin-top="-0.1"
   fit-margin-left="0"
   fit-margin-right="0"
   fit-margin-bottom="0"
   inkscape:zoom="3.6516597"
   inkscape:cx="-0.58087105"
   inkscape:cy="-1.0683167"
   inkscape:window-x="1796"
   inkscape:window-y="352"
   inkscape:window-maximized="0"
   inkscape:current-layer="g6" />
<g
   id="g8"
   transform="matrix(0.60395266,0,0,0.60395266,-4.1809135e-4,-1.0548492)">
	<g
   id="g6">
		<path
   d="m 41.466603,21.704 c -0.331,-0.132 -0.701,-0.128 -1.028,0.012 l -7.922,3.389 c -0.499,0.213 -0.82,0.708 -0.814,1.251 0.007,0.543 0.34,1.03 0.844,1.232 l 2.168,0.869 c -2.007,4.724 -6.697,7.943 -11.982,7.943 -5.308,0 -10.012,-3.271 -12.005,-7.991 -0.685,-1.62 -2.4100002,-2.543 -4.1380002,-2.208 l -0.271,0.052 c -1.102,0.214 -2.049,0.914 -2.575,1.903 -0.528,0.99 -0.582,2.165 -0.148,3.2 3.164,7.537 10.6630002,12.762 19.1340002,12.762 8.483,0 15.961,-5.067 19.154,-12.788 l 1.971,0.79 c 0.505,0.203 1.082,0.081 1.461,-0.308 0.38,-0.389 0.489,-0.968 0.275,-1.468 l -3.39,-7.921 c -0.14,-0.328 -0.402,-0.587 -0.734,-0.719 z"
   id="path2"
   inkscape:connector-curvature="0"
   style="fill:#bed6f8;fill-opacity:1" />
		<path
   d="m 0.10960285,15.356 3.38899995,7.92 c 0.142,0.328 0.405,0.587 0.736,0.719 0.331,0.132 0.7,0.128 1.027,-0.012 l 7.9220002,-3.389 c 0.5,-0.213 0.821,-0.707 0.815,-1.25 -0.007,-0.543 -0.34,-1.031 -0.844,-1.232 l -2.169,-0.869 c 2.008,-4.725 6.697,-7.943 11.982,-7.943 5.308,0 10.012,3.271 12.005,7.991 0.685,1.62 2.411,2.543 4.137,2.208 l 0.272,-0.052 c 1.101,-0.214 2.048,-0.914 2.575,-1.903 0.528,-0.99 0.581,-2.165 0.147,-3.199 -3.166,-7.539 -10.664,-12.764 -19.137,-12.764 -8.483,0 -15.9620002,5.066 -19.1540002,12.788 l -1.972,-0.79 c -0.504,-0.203 -1.08099995,-0.081 -1.45999995,0.309 -0.376,0.388 -0.486,0.968 -0.271,1.468 z"
   id="path4"
   inkscape:connector-curvature="0"
   style="fill:#e5eefd;fill-opacity:1" />
	</g>
</g>
<g
   id="g10"
   transform="translate(-6.9225651e-4,-1.681)">
</g>
<g
   id="g12"
   transform="translate(-6.9225651e-4,-1.681)">
</g>
<g
   id="g14"
   transform="translate(-6.9225651e-4,-1.681)">
</g>
<g
   id="g16"
   transform="translate(-6.9225651e-4,-1.681)">
</g>
<g
   id="g18"
   transform="translate(-6.9225651e-4,-1.681)">
</g>
<g
   id="g20"
   transform="translate(-6.9225651e-4,-1.681)">
</g>
<g
   id="g22"
   transform="translate(-6.9225651e-4,-1.681)">
</g>
<g
   id="g24"
   transform="translate(-6.9225651e-4,-1.681)">
</g>
<g
   id="g26"
   transform="translate(-6.9225651e-4,-1.681)">
</g>
<g
   id="g28"
   transform="translate(-6.9225651e-4,-1.681)">
</g>
<g
   id="g30"
   transform="translate(-6.9225651e-4,-1.681)">
</g>
<g
   id="g32"
   transform="translate(-6.9225651e-4,-1.681)">
</g>
<g
   id="g34"
   transform="translate(-6.9225651e-4,-1.681)">
</g>
<g
   id="g36"
   transform="translate(-6.9225651e-4,-1.681)">
</g>
<g
   id="g38"
   transform="translate(-6.9225651e-4,-1.681)">
</g>
</svg>