<?xml version="1.0" encoding="UTF-8" standalone="no"?>
<!-- Generator: Adobe Illustrator 19.0.0, SVG Export Plug-In . SVG Version: 6.00 Build 0)  -->

<svg
   xmlns:dc="http://purl.org/dc/elements/1.1/"
   xmlns:cc="http://creativecommons.org/ns#"
   xmlns:rdf="http://www.w3.org/1999/02/22-rdf-syntax-ns#"
   xmlns:svg="http://www.w3.org/2000/svg"
   xmlns="http://www.w3.org/2000/svg"
   xmlns:sodipodi="http://sodipodi.sourceforge.net/DTD/sodipodi-0.dtd"
   xmlns:inkscape="http://www.inkscape.org/namespaces/inkscape"
   version="1.1"
   id="Layer_1"
   x="0px"
   y="0px"
   viewBox="0 0 15.119896 9.2022896"
   xml:space="preserve"
   sodipodi:docname="icoZipDescargar.svg"
   width="15.119896"
   height="9.2022896"
   inkscape:version="0.92.4 (5da689c313, 2019-01-14)"><metadata
   id="metadata55"><rdf:RDF><cc:Work
       rdf:about=""><dc:format>image/svg+xml</dc:format><dc:type
         rdf:resource="http://purl.org/dc/dcmitype/StillImage" /><dc:title></dc:title></cc:Work></rdf:RDF></metadata><defs
   id="defs53" /><sodipodi:namedview
   pagecolor="#ffffff"
   bordercolor="#666666"
   borderopacity="1"
   objecttolerance="10"
   gridtolerance="10"
   guidetolerance="10"
   inkscape:pageopacity="0"
   inkscape:pageshadow="2"
   inkscape:window-width="1440"
   inkscape:window-height="877"
   id="namedview51"
   showgrid="false"
   fit-margin-top="0"
   fit-margin-left="0"
   fit-margin-right="0"
   fit-margin-bottom="0"
   inkscape:zoom="14.75"
   inkscape:cx="27.54158"
   inkscape:cy="-12.172151"
   inkscape:window-x="-8"
   inkscape:window-y="-8"
   inkscape:window-maximized="1"
   inkscape:current-layer="Layer_1" />
<path
   style="fill:#e2e5e7;stroke-width:0.01767075"
   d="M 1.696392,0 C 1.385387,0 1.130928,0.25445876 1.130928,0.56546391 V 8.4819587 c 0,0.3110051 0.254459,0.5654639 0.565464,0.5654639 h 5.654639 c 0.311005,0 0.565464,-0.2544588 0.565464,-0.5654639 V 2.2618557 L 5.654639,0 Z"
   id="path2"
   inkscape:connector-curvature="0" />
<path
   style="fill:#b0b7bd;stroke-width:0.01767075"
   d="M 6.220103,2.2618557 H 7.916495 L 5.654639,0 v 1.6963918 c 0,0.3110051 0.254459,0.5654639 0.565464,0.5654639 z"
   id="path4"
   inkscape:connector-curvature="0" />
<polygon
   style="fill:#cad1d8"
   points="384,128 480,128 480,224 "
   id="polygon6"
   transform="matrix(0.01767075,0,0,0.01767075,-0.565464,0)" />
<path
   style="fill:#84bd5a;stroke-width:0.01767075"
   d="m 6.785567,7.3510309 c 0,0.1555027 -0.127229,0.2827319 -0.282732,0.2827319 H 0.282732 C 0.12723,7.6337628 0,7.5065336 0,7.3510309 V 4.5237113 C 0,4.3682089 0.12723,4.2409793 0.282732,4.2409793 h 6.220103 c 0.155503,0 0.282732,0.1272296 0.282732,0.282732 z"
   id="path8"
   inkscape:connector-curvature="0" />
<g
   id="g16"
   transform="matrix(0.01767075,0,0,0.01767075,-0.565464,0)">
	<path
   style="fill:#ffffff"
   d="m 132.64,384 c -8.064,0 -11.264,-7.792 -6.656,-13.296 l 45.552,-60.512 h -37.76 c -11.12,0 -10.224,-15.712 0,-15.712 h 51.568 c 9.712,0 12.528,9.184 5.632,16.624 l -43.632,56.656 h 41.584 c 10.24,0 11.52,16.256 -1.008,16.256 h -55.28 z"
   id="path10"
   inkscape:connector-curvature="0" />
	<path
   style="fill:#ffffff"
   d="m 212.048,303.152 c 0,-10.496 16.896,-10.88 16.896,0 v 73.04 c 0,10.608 -16.896,10.88 -16.896,0 z"
   id="path12"
   inkscape:connector-curvature="0" />
	<path
   style="fill:#ffffff"
   d="m 251.616,303.152 c 0,-4.224 3.328,-8.832 8.704,-8.832 h 29.552 c 16.64,0 31.616,11.136 31.616,32.48 0,20.224 -14.976,31.488 -31.616,31.488 h -21.36 v 16.896 c 0,5.632 -3.584,8.816 -8.192,8.816 -4.224,0 -8.704,-3.184 -8.704,-8.816 z m 16.88,7.28 v 31.872 h 21.36 c 8.576,0 15.36,-7.568 15.36,-15.504 0,-8.944 -6.784,-16.368 -15.36,-16.368 z"
   id="path14"
   inkscape:connector-curvature="0" />
</g>
<path
   style="fill:#cad1d8;stroke-width:0.01767075"
   d="M 6.502835,7.6337628 H 1.130928 v 0.282732 h 5.371907 c 0.155503,0 0.282732,-0.1272292 0.282732,-0.282732 V 7.3510309 c 0,0.1555027 -0.127229,0.2827319 -0.282732,0.2827319 z"
   id="path18"
   inkscape:connector-curvature="0" />
<g
   id="g20"
   transform="translate(-32)">
</g>
<g
   id="g22"
   transform="translate(-32)">
</g>
<g
   id="g24"
   transform="translate(-32)">
</g>
<g
   id="g26"
   transform="translate(-32)">
</g>
<g
   id="g28"
   transform="translate(-32)">
</g>
<g
   id="g30"
   transform="translate(-32)">
</g>
<g
   id="g32"
   transform="translate(-32)">
</g>
<g
   id="g34"
   transform="translate(-32)">
</g>
<g
   id="g36"
   transform="translate(-32)">
</g>
<g
   id="g38"
   transform="translate(-32)">
</g>
<g
   id="g40"
   transform="translate(-32)">
</g>
<g
   id="g42"
   transform="translate(-32)">
</g>
<g
   id="g44"
   transform="translate(-32)">
</g>
<g
   id="g46"
   transform="translate(-32)">
</g>
<g
   id="g48"
   transform="translate(-32)">
</g>
<g
   id="g118"
   transform="matrix(0.01767075,0,0,0.01767075,6.6403,0.15182638)"
   style="fill:#84bd5a;fill-opacity:1"><g
     id="g61"
     style="fill:#84bd5a;fill-opacity:1">
	<g
   id="g59"
   style="fill:#84bd5a;fill-opacity:1">
		<path
   id="path57"
   d="m 479.046,283.925 c -1.664,-3.989 -5.547,-6.592 -9.856,-6.592 H 352.305 V 10.667 C 352.305,4.779 347.526,0 341.638,0 H 170.971 c -5.888,0 -10.667,4.779 -10.667,10.667 V 277.334 H 42.971 c -4.309,0 -8.192,2.603 -9.856,6.571 -1.643,3.989 -0.747,8.576 2.304,11.627 l 212.8,213.504 c 2.005,2.005 4.715,3.136 7.552,3.136 2.837,0 5.547,-1.131 7.552,-3.115 L 476.742,295.553 c 3.051,-3.052 3.968,-7.638 2.304,-11.628 z"
   inkscape:connector-curvature="0"
   style="fill:#84bd5a;fill-opacity:1" />
	</g>
</g><g
     id="g63"
     style="fill:#84bd5a;fill-opacity:1">
</g><g
     id="g65"
     style="fill:#84bd5a;fill-opacity:1">
</g><g
     id="g67"
     style="fill:#84bd5a;fill-opacity:1">
</g><g
     id="g69"
     style="fill:#84bd5a;fill-opacity:1">
</g><g
     id="g71"
     style="fill:#84bd5a;fill-opacity:1">
</g><g
     id="g73"
     style="fill:#84bd5a;fill-opacity:1">
</g><g
     id="g75"
     style="fill:#84bd5a;fill-opacity:1">
</g><g
     id="g77"
     style="fill:#84bd5a;fill-opacity:1">
</g><g
     id="g79"
     style="fill:#84bd5a;fill-opacity:1">
</g><g
     id="g81"
     style="fill:#84bd5a;fill-opacity:1">
</g><g
     id="g83"
     style="fill:#84bd5a;fill-opacity:1">
</g><g
     id="g85"
     style="fill:#84bd5a;fill-opacity:1">
</g><g
     id="g87"
     style="fill:#84bd5a;fill-opacity:1">
</g><g
     id="g89"
     style="fill:#84bd5a;fill-opacity:1">
</g><g
     id="g91"
     style="fill:#84bd5a;fill-opacity:1">
</g></g></svg>