<?xml version="1.0" encoding="UTF-8" standalone="no"?>
<!-- Created with Inkscape (http://www.inkscape.org/) -->

<svg
   xmlns:dc="http://purl.org/dc/elements/1.1/"
   xmlns:cc="http://creativecommons.org/ns#"
   xmlns:rdf="http://www.w3.org/1999/02/22-rdf-syntax-ns#"
   xmlns:svg="http://www.w3.org/2000/svg"
   xmlns="http://www.w3.org/2000/svg"
   xmlns:sodipodi="http://sodipodi.sourceforge.net/DTD/sodipodi-0.dtd"
   xmlns:inkscape="http://www.inkscape.org/namespaces/inkscape"
   width="8.5140896mm"
   height="8.535737mm"
   viewBox="0 0 8.5140896 8.535737"
   version="1.1"
   id="svg182"
   inkscape:version="0.92.4 (5da689c313, 2019-01-14)"
   sodipodi:docname="img_status_0.svg">
  <defs
     id="defs176" />
  <sodipodi:namedview
     id="base"
     pagecolor="#ffffff"
     bordercolor="#666666"
     borderopacity="1.0"
     inkscape:pageopacity="0.0"
     inkscape:pageshadow="2"
     inkscape:zoom="0.35"
     inkscape:cx="-551.05323"
     inkscape:cy="58.987669"
     inkscape:document-units="mm"
     inkscape:current-layer="layer1"
     showgrid="false"
     fit-margin-top="0"
     fit-margin-left="0"
     fit-margin-right="0"
     fit-margin-bottom="0"
     inkscape:window-width="1366"
     inkscape:window-height="705"
     inkscape:window-x="-8"
     inkscape:window-y="-8"
     inkscape:window-maximized="1" />
  <metadata
     id="metadata179">
    <rdf:RDF>
      <cc:Work
         rdf:about="">
        <dc:format>image/svg+xml</dc:format>
        <dc:type
           rdf:resource="http://purl.org/dc/dcmitype/StillImage" />
        <dc:title></dc:title>
      </cc:Work>
    </rdf:RDF>
  </metadata>
  <g
     inkscape:label="Capa 1"
     inkscape:groupmode="layer"
     id="layer1"
     transform="translate(-112.15962,-155.90475)">
    <path
       sodipodi:nodetypes="sssaaaccasasssss"
       inkscape:connector-curvature="0"
       id="path208"
       style="fill:#ebf5ff;fill-opacity:1;fill-rule:nonzero;stroke:none;stroke-width:0.01662907"
       d="m 116.41667,155.91524 c -1.13715,0 -2.20615,0.44281 -3.01019,1.24685 -0.80404,0.80404 -1.24686,1.87311 -1.24686,3.01019 0,0.74837 0.2056,1.49104 0.56994,2.12897 0.36497,0.63903 0.90968,1.20697 1.54679,1.57528 0.64803,0.37462 1.42515,0.57031 2.17364,0.5638 0.68178,-0.006 1.96021,-0.54185 1.97067,-0.54788 l -0.82728,-1.6034 c -0.21485,0.10192 -0.77914,0.31102 -1.18959,0.31886 -0.38976,0.007 -0.84602,-0.13686 -1.14035,-0.25944 -0.38423,-0.16001 -0.72202,-0.57393 -0.94502,-0.96506 -0.207,-0.36305 -0.32408,-0.78527 -0.32408,-1.21113 0,-1.33565 1.08667,-2.42232 2.42233,-2.42232 0.13771,0 0.24943,-0.11166 0.24943,-0.24944 v -1.33585 c 0,-0.13777 -0.11172,-0.24943 -0.24943,-0.24943 z" />
    <path
       inkscape:connector-curvature="0"
       id="path210"
       style="fill:#0059b0;fill-opacity:1;fill-rule:nonzero;stroke:none;stroke-width:0.00807898"
       d="m 116.8565,160.85516 c -0.031,0 -0.062,-0.0118 -0.0857,-0.0355 -0.0473,-0.0473 -0.0473,-0.12406 0,-0.17137 l 0.91785,-0.91784 c 0.0473,-0.0473 0.12405,-0.0473 0.17136,0 0.0473,0.0473 0.0473,0.12405 0,0.17136 l -0.91785,0.91785 c -0.0237,0.0237 -0.0547,0.0355 -0.0857,0.0355 z m 0,0" />
    <path
       inkscape:connector-curvature="0"
       id="path212"
       style="fill:#00335c;fill-opacity:1;fill-rule:nonzero;stroke:none;stroke-width:0.00807898"
       d="m 117.68258,160.76336 c -0.0319,0 -0.0632,-0.0129 -0.0857,-0.0355 -0.0225,-0.0226 -0.0355,-0.0538 -0.0355,-0.0857 0,-0.0319 0.0129,-0.0631 0.0355,-0.0857 0.0225,-0.0225 0.0538,-0.0355 0.0857,-0.0355 0.0319,0 0.0631,0.0129 0.0857,0.0355 0.0226,0.0226 0.0355,0.0538 0.0355,0.0857 0,0.0319 -0.0129,0.0631 -0.0355,0.0857 -0.0225,0.0226 -0.0538,0.0355 -0.0857,0.0355 z m 0,0" />
    <path
       inkscape:connector-curvature="0"
       id="path214"
       style="fill:#0059b0;fill-opacity:1;fill-rule:nonzero;stroke:none;stroke-width:0.00807898"
       d="m 116.94827,160.02915 c -0.0319,0 -0.0631,-0.013 -0.0857,-0.0355 -0.0225,-0.0225 -0.0355,-0.0538 -0.0355,-0.0857 0,-0.0318 0.0129,-0.0631 0.0355,-0.0857 0.0226,-0.0226 0.0538,-0.0355 0.0857,-0.0355 0.0319,0 0.0631,0.0129 0.0857,0.0355 0.0225,0.0225 0.0355,0.0538 0.0355,0.0857 0,0.0319 -0.0129,0.0632 -0.0355,0.0857 -0.0226,0.0225 -0.0538,0.0355 -0.0857,0.0355 z m 0,0" />
    <path
       sodipodi:nodetypes="csssssacssaccsc"
       inkscape:connector-curvature="0"
       id="path216"
       style="fill:#ebf5ff;fill-opacity:1;fill-rule:nonzero;stroke:none;stroke-width:0.01662907"
       d="m 119.42685,157.16209 c -0.8041,-0.80404 -1.87311,-1.24685 -3.01018,-1.24685 -0.13778,0 -0.24944,0.11166 -0.24944,0.24943 v 1.33585 c 0,0.13778 0.11166,0.24944 0.24944,0.24944 1.33565,0 2.42225,1.08667 2.42225,2.42232 0,0.36871 -0.12613,0.86628 -0.34333,1.23379 -0.2141,0.36226 -0.82788,0.85687 -0.90221,0.88298 -0.0732,0.0708 -0.0331,0.22971 -0.0164,0.26256 0.25013,0.4924 0.26417,0.50533 0.65502,1.26172 0.007,0.0134 0.0369,0.0552 0.0655,0.0689 0.0371,0.0178 0.0969,0.0212 0.12316,0.0102 0.34084,-0.19013 0.72262,-0.42643 1.00619,-0.70999 0.80404,-0.80404 1.24686,-1.8731 1.24686,-3.01018 0,-1.13708 -0.44282,-2.20615 -1.24686,-3.01019 z" />
    <path
       sodipodi:nodetypes="cssssccc"
       inkscape:connector-curvature="0"
       id="path218"
       style="fill:#ebf5ff;fill-opacity:1;fill-rule:nonzero;stroke:none;stroke-width:0.01662907"
       d="m 119.42685,157.16209 c -0.8041,-0.80404 -1.87311,-1.24685 -3.01018,-1.24685 -0.13778,0 -0.24944,0.11166 -0.24944,0.24943 v 1.33585 c 0,0.13778 0.11166,0.24944 0.24944,0.24944 1.33565,0 2.42225,1.08667 2.42225,2.42232 0.18695,0.0131 0,0 1.83479,0 0,-1.13708 -0.44282,-2.20615 -1.24686,-3.01019 z" />
    <path
       inkscape:connector-curvature="0"
       id="path220"
       style="fill:#00b34a;fill-opacity:1;fill-rule:nonzero;stroke:none;stroke-width:0.01662907"
       d="m 116.70736,156.02963 c 0.0212,0.0367 0.0333,0.0792 0.0332,0.12454 l 3e-5,1.33584 c -1e-5,0.1378 -0.11168,0.24945 -0.24944,0.24948 -0.1378,-2e-5 -0.24951,-0.11165 -0.24943,-0.24948 l 2e-5,-1.33587 c 0,-0.13771 0.11162,-0.24941 0.24942,-0.24939 0.0924,-2e-5 0.17309,0.0502 0.21619,0.12488 z m 0,0" />
    <path
       inkscape:connector-curvature="0"
       id="path228"
       style="fill:#00335c;fill-opacity:1;fill-rule:nonzero;stroke:none;stroke-width:0.00807898"
       d="m 117.86003,159.73045 c -0.0473,-0.0473 -0.12406,-0.0473 -0.17139,0 l -0.37321,0.37321 v 0.34279 l 0.5446,-0.54464 c 0.0473,-0.0473 0.0473,-0.12406 0,-0.17136 z m 0,0" />
    <text
       id="text232"
       y="160.86488"
       x="115.60693"
       style="font-style:normal;font-variant:normal;font-weight:bold;font-stretch:normal;font-size:1.55332172px;line-height:1.25;font-family:sans-serif;-inkscape-font-specification:'sans-serif, Bold';font-variant-ligatures:normal;font-variant-caps:normal;font-variant-numeric:normal;font-feature-settings:normal;text-align:start;letter-spacing:0px;word-spacing:0px;writing-mode:lr-tb;text-anchor:start;fill:#0059b0;fill-opacity:1;stroke:none;stroke-width:0.03883297"
       xml:space="preserve"><tspan
         style="font-style:normal;font-variant:normal;font-weight:bold;font-stretch:normal;font-size:1.55332172px;font-family:sans-serif;-inkscape-font-specification:'sans-serif, Bold';font-variant-ligatures:normal;font-variant-caps:normal;font-variant-numeric:normal;font-feature-settings:normal;text-align:start;writing-mode:lr-tb;text-anchor:start;fill:#0059b0;fill-opacity:1;stroke-width:0.03883297"
         y="160.86488"
         x="115.60693"
         id="tspan230"
         sodipodi:role="line">0</tspan></text>
  </g>
</svg>
