<?xml version="1.0" encoding="UTF-8" standalone="no"?>
<!-- Created with Inkscape (http://www.inkscape.org/) -->

<svg
   xmlns:dc="http://purl.org/dc/elements/1.1/"
   xmlns:cc="http://creativecommons.org/ns#"
   xmlns:rdf="http://www.w3.org/1999/02/22-rdf-syntax-ns#"
   xmlns:svg="http://www.w3.org/2000/svg"
   xmlns="http://www.w3.org/2000/svg"
   xmlns:sodipodi="http://sodipodi.sourceforge.net/DTD/sodipodi-0.dtd"
   xmlns:inkscape="http://www.inkscape.org/namespaces/inkscape"
   width="8.5359001mm"
   height="8.5140839mm"
   viewBox="0 0 8.5359001 8.5140839"
   version="1.1"
   id="svg1396"
   inkscape:version="0.92.4 (5da689c313, 2019-01-14)"
   sodipodi:docname="img_status_100.svg">
  <defs
     id="defs1390" />
  <sodipodi:namedview
     id="base"
     pagecolor="#ffffff"
     bordercolor="#666666"
     borderopacity="1.0"
     inkscape:pageopacity="0.0"
     inkscape:pageshadow="2"
     inkscape:zoom="0.35"
     inkscape:cx="-1098.1549"
     inkscape:cy="-141.05325"
     inkscape:document-units="mm"
     inkscape:current-layer="layer1"
     showgrid="false"
     inkscape:window-width="1366"
     inkscape:window-height="705"
     inkscape:window-x="-8"
     inkscape:window-y="-8"
     inkscape:window-maximized="1"
     fit-margin-top="0"
     fit-margin-left="0"
     fit-margin-right="0"
     fit-margin-bottom="0" />
  <metadata
     id="metadata1393">
    <rdf:RDF>
      <cc:Work
         rdf:about="">
        <dc:format>image/svg+xml</dc:format>
        <dc:type
           rdf:resource="http://purl.org/dc/dcmitype/StillImage" />
        <dc:title></dc:title>
      </cc:Work>
    </rdf:RDF>
  </metadata>
  <g
     inkscape:label="Capa 1"
     inkscape:groupmode="layer"
     id="layer1"
     transform="translate(-117.44038,-102.99891)">
    <g
       id="g174"
       transform="matrix(0.01662907,0,0,0.01662907,82.777332,110.81261)">
      <path
         inkscape:connector-curvature="0"
         id="path117"
         style="fill:#00b34a;fill-opacity:1;fill-rule:nonzero;stroke:none"
         d="m 2341.7972,-469.882 c -68.3828,0 -132.6679,26.62891 -181.0195,74.98047 -48.3516,48.35156 -74.9805,112.64062 -74.9805,181.01953 0,45.00391 11.8516,89.27344 34.2735,128.027339 2.7812,4.8086 7.8203,7.49219 13,7.49219 2.5429,0 5.1211,-0.64844 7.4843,-2.01172 l 69.5821,-40.171869 c 3.4453,-1.99219 5.9609,-5.26953 6.9882,-9.11328 1.0274,-3.84766 0.4883,-7.94532 -1.5078,-11.39063 -12.75,-22.03516 -19.4882,-47.22266 -19.4882,-72.83203 0,-80.32031 65.3476,-145.66797 145.6679,-145.66797 8.2813,0 15,-6.71484 15,-15 V -454.882 c 0,-8.28515 -6.7187,-15 -15,-15 z m 0,0" />
      <path
         inkscape:connector-curvature="0"
         id="path125"
         style="fill:#00b34a;fill-opacity:1;fill-rule:nonzero;stroke:none"
         d="m 2522.8168,-394.90153 c -48.3555,-48.35156 -112.6406,-74.98047 -181.0196,-74.98047 -8.2851,0 -15,6.71485 -15,15 v 80.33203 c 0,8.28516 6.7149,15 15,15 80.3204,0 145.6641,65.34766 145.6641,145.66797 0,80.32031 -65.3437,145.664059 -145.6641,145.664059 -51.8359,0 -100.1836,-27.90625 -126.1797,-72.828119 -4.1445,-7.16797 -13.3125,-9.61719 -20.4804,-5.48047 l -69.5821,40.17187 c -3.4453,1.98828 -5.9609,5.26953 -6.9882,9.113279 -1.0274,3.84375 -0.4883,7.94141 1.5078,11.38672 22.1054,38.20703 53.8867,70.2461 91.914,92.6601602 39.1914,23.1015598 84.0782,35.3124998 129.8086,35.3124998 68.379,0 132.6641,-26.62891 181.0196,-74.98047 48.3515,-48.35156 74.9804,-112.640619 74.9804,-181.019529 0,-68.37891 -26.6289,-132.66797 -74.9804,-181.01953 z m 0,0" />
      <path
         inkscape:connector-curvature="0"
         id="path127"
         style="fill:#00b34a;fill-opacity:1;fill-rule:nonzero;stroke:none"
         d="m 2522.8168,-394.90153 c -48.3555,-48.35156 -112.6406,-74.98047 -181.0196,-74.98047 -8.2851,0 -15,6.71485 -15,15 v 80.33203 c 0,8.28516 6.7149,15 15,15 80.3204,0 145.6641,65.34766 145.6641,145.66797 0,80.32031 -65.3437,145.664059 -145.6641,145.664059 v 110.33594 c 68.379,0 132.6641,-26.62891 181.0196,-74.98047 48.3515,-48.35156 74.9804,-112.640619 74.9804,-181.019529 0,-68.37891 -26.6289,-132.66797 -74.9804,-181.01953 z m 0,0" />
      <path
         inkscape:connector-curvature="0"
         id="path129"
         style="fill:#00874a;fill-opacity:1;fill-rule:nonzero;stroke:none"
         d="m 2344.0878,42.073739 c -8.2784,-0.33179 -14.719,-7.31016 -14.3872,-15.58866 l 3.2172,-80.27151 c 0.3317,-8.27461 7.3103,-14.71904 15.5888,-14.38725 8.2746,0.33163 14.7188,7.31405 14.3872,15.58866 l -3.2172,80.27151 c -0.3319,8.2785 -7.3141,14.71889 -15.5888,14.38725 z m 0,0" />
      <path
         inkscape:connector-curvature="0"
         id="path131"
         style="fill:#00874a;fill-opacity:1;fill-rule:nonzero;stroke:none"
         d="m 2462.309,9.8328392 c -5.1836,0 -10.2266,-2.6875 -13.0039,-7.5 L 2409.141,-67.241381 c -4.1445,-7.17187 -1.6836,-16.34765 5.4883,-20.48828 7.1758,-4.14453 16.3476,-1.68359 20.4922,5.48828 l 40.164,69.57422 c 4.1446,7.1718802 1.6836,16.3476602 -5.4883,20.4882802 -2.3632,1.36329 -4.9414,2.01172 -7.4882,2.01172 z m 0,0" />
      <path
         inkscape:connector-curvature="0"
         id="path133"
         style="fill:#00874a;fill-opacity:1;fill-rule:nonzero;stroke:none"
         d="m 2550.4965,-78.378091 c -2.5469,0 -5.125,-0.64844 -7.4844,-2.01563 l -69.5703,-40.164059 c -7.1758,-4.14453 -9.6328,-13.31641 -5.4922,-20.49219 4.1445,-7.17578 13.3164,-9.63672 20.4922,-5.48828 l 69.5703,40.16797 c 7.1719,4.14062 9.6328,13.312499 5.4883,20.488279 -2.7774,4.8125 -7.8203,7.50391 -13.0039,7.50391 z m 0,0" />
      <path
         inkscape:connector-curvature="0"
         id="path135"
         style="fill:#00874a;fill-opacity:1;fill-rule:nonzero;stroke:none"
         d="m 2582.7972,-198.882 h -80.3359 c -8.2812,0 -15,-6.71484 -15,-15 0,-8.28516 6.7188,-15 15,-15 h 80.3359 c 8.2813,0 15,6.71484 15,15 0,8.28516 -6.7187,15 -15,15 z m 0,0" />
      <path
         inkscape:connector-curvature="0"
         id="path137"
         style="fill:#00874a;fill-opacity:1;fill-rule:nonzero;stroke:none"
         d="m 2480.9535,-279.21403 c -5.1836,0 -10.2266,-2.6875 -13.0039,-7.50391 -4.1445,-7.17187 -1.6836,-16.34765 5.4883,-20.48828 l 69.5703,-40.16406 c 7.1719,-4.14844 16.3476,-1.6875 20.4883,5.48828 4.1445,7.17578 1.6836,16.34766 -5.4883,20.48828 l -69.5703,40.16797 c -2.3594,1.36328 -4.9414,2.01172 -7.4844,2.01172 z m 0,0" />
      <path
         inkscape:connector-curvature="0"
         id="path139"
         style="fill:#00874a;fill-opacity:1;fill-rule:nonzero;stroke:none"
         d="m 2425.1176,-335.02263 c -2.5469,0 -5.125,-0.64453 -7.4844,-2.01171 -7.1758,-4.14063 -9.6367,-13.31641 -5.4922,-20.48828 l 40.168,-69.57032 c 4.1406,-7.17577 13.3125,-9.63671 20.4882,-5.49218 7.1758,4.14453 9.6329,13.3164 5.4883,20.49218 l -40.164,69.57032 c -2.7774,4.81249 -7.8203,7.49999 -13.0039,7.49999 z m 0,0" />
      <path
         inkscape:connector-curvature="0"
         id="path141"
         style="fill:#00b34a;fill-opacity:1;fill-rule:nonzero;stroke:none"
         d="m 2221.2816,9.8328392 c -2.543,0 -5.1211,-0.64843 -7.4844,-2.01172 -7.1758,-4.14062 -9.6328,-13.3164 -5.4883,-20.4882802 l 40.1641,-69.57422 c 4.1406,-7.17187 13.3125,-9.63281 20.4922,-5.48828 7.1719,4.14063 9.6328,13.31641 5.4883,20.48828 l -40.1641,69.5742202 c -2.7812,4.8086 -7.8203,7.5 -13.0078,7.5 z m 0,0" />
      <path
         d="m 2351.6323,-361.6758 c -2.1736,1.32742 -4.7098,2.12103 -7.436,2.1839 -8.2821,0.20615 -15.1647,-6.34225 -15.3655,-14.62307 l -1.9785,-80.30929 c -0.2012,-8.28227 6.3389,-15.1627 14.623,-15.36547 8.2843,-0.2032 15.1615,6.34423 15.3642,14.62844 l 1.9816,80.30722 c 0.1349,5.5548 -2.7653,10.47665 -7.1892,13.17828 z m 0,0"
         style="fill:#00874a;fill-opacity:1;fill-rule:nonzero;stroke:none"
         id="path4669"
         inkscape:connector-curvature="0" />
      <path
         inkscape:connector-curvature="0"
         id="path4671"
         style="fill:#00874a;fill-opacity:1;fill-rule:nonzero;stroke:none"
         d="m 2270.1359,-343.59991 c -1.163,2.26585 -2.9136,4.26515 -5.2074,5.73989 -6.9605,4.49318 -16.2474,2.49249 -20.7355,-4.46955 l -43.5513,-67.50387 c -4.489,-6.96316 -2.4943,-16.24404 4.4695,-20.73532 6.9639,-4.49179 16.2459,-2.48919 20.7372,4.47479 l 43.5528,67.50057 c 3.0108,4.67008 3.1014,10.38211 0.7343,14.99371 z m 0,0" />
      <path
         d="m 2201.5825,0.00355922 c -6.5756,-5.04058002 -7.8196,-14.45501022 -2.7789,-21.03037022 l 48.8751,-63.75805 c 5.0382,-6.57237 14.4551,-7.81935 21.0305,-2.77884 6.5724,5.0382 7.817,14.45801 2.7788,21.03038 l -48.8751,63.7580402 c -5.0407,6.57538 -14.458,7.81704 -21.0304,2.77884002 z m 0,0"
         style="fill:#00874a;fill-opacity:1;fill-rule:nonzero;stroke:none"
         id="path4673"
         inkscape:connector-curvature="0" />
      <path
         inkscape:connector-curvature="0"
         id="path4675"
         style="fill:#00874a;fill-opacity:1;fill-rule:nonzero;stroke:none"
         d="m 2123.6535,-81.043531 c -4.4686,-6.97692 -2.4356,-16.25303 4.5413,-20.721369 l 67.6501,-43.32809 c 6.9736,-4.46639 16.2531,-2.43541 20.7215,4.54138 4.4664,6.9736 2.4322,16.25497 -4.5414,20.72136 l -67.6501,43.328079 c -6.977,4.46836 -16.255,2.43224 -20.7214,-4.54136 z m 0,0" />
      <path
         d="m 2218.7453,-294.59707 c -0.021,2.5468 -0.6869,5.11943 -2.0738,7.46745 -4.2,7.14117 -13.3959,9.52576 -20.5332,5.32202 l -69.2345,-40.74387 c -7.1387,-4.20434 -9.526,-13.39209 -5.3221,-20.53306 4.2038,-7.14146 13.3961,-9.52215 20.5371,-5.3181 l 69.2345,40.74024 c 4.7878,2.81974 7.4348,7.88224 7.3918,13.0657 z m 0,0"
         style="fill:#00874a;fill-opacity:1;fill-rule:nonzero;stroke:none"
         id="path4677"
         inkscape:connector-curvature="0" />
      <path
         inkscape:connector-curvature="0"
         id="path4679"
         style="fill:#00874a;fill-opacity:1;fill-rule:nonzero;stroke:none"
         d="m 2192.9412,-220.84293 c 1.2318,2.22916 1.9145,4.7974 1.8588,7.52385 -0.1538,8.28329 -6.9951,14.87481 -15.2768,14.71586 l -80.3193,-1.51221 c -8.2833,-0.15877 -14.8732,-6.99159 -14.7159,-15.2766 0.157,-8.2854 6.997,-14.87176 15.2821,-14.71436 l 80.3175,1.50905 c 5.5554,0.10646 10.3466,3.21774 12.8536,7.75484 z m 0,0" />
      <path
         d="m 2410.4064,-173.04447 c -1.7201,0 -3.4384,-0.65621 -4.7509,-1.9686 -2.6247,-2.62302 -2.6247,-6.87867 0,-9.50171 l 50.8929,-50.89281 c 2.6231,-2.62478 6.8787,-2.62478 9.5017,0 2.6248,2.62304 2.6248,6.87869 0,9.50172 l -50.8928,50.8928 c -1.3123,1.31239 -3.0324,1.9686 -4.7509,1.9686 z m 0,0"
         style="fill:#0059b0;fill-opacity:1;fill-rule:nonzero;stroke:none;stroke-width:0.44796306"
         id="path4-5-7-4"
         inkscape:connector-curvature="0" />
      <path
         d="m 2456.2107,-178.1348 c -1.7691,0 -3.5031,-0.71569 -4.7527,-1.96685 -1.2493,-1.2529 -1.9667,-2.9835 -1.9667,-4.7526 0,-1.76911 0.7174,-3.49795 1.9667,-4.75261 1.2496,-1.2494 2.9836,-1.96683 4.7527,-1.96683 1.7691,0 3.4997,0.71743 4.7491,1.96683 1.2546,1.25466 1.9704,2.9835 1.9704,4.75261 0,1.7691 -0.7175,3.4997 -1.9704,4.7526 -1.2494,1.25116 -2.98,1.96685 -4.7491,1.96685 z m 0,0"
         style="fill:#00335c;fill-opacity:1;fill-rule:nonzero;stroke:none;stroke-width:0.44796306"
         id="path6-9-9-3"
         inkscape:connector-curvature="0" />
      <path
         d="m 2415.495,-218.84519 c -1.7691,0 -3.498,-0.72095 -4.7525,-1.97033 -1.2494,-1.24941 -1.9669,-2.98351 -1.9669,-4.75262 0,-1.76561 0.7175,-3.49971 1.9669,-4.74911 1.2545,-1.25465 2.9834,-1.97034 4.7525,-1.97034 1.771,0 3.4997,0.71569 4.7526,1.97034 1.2494,1.2494 1.9669,2.9835 1.9669,4.74911 0,1.76911 -0.7175,3.50321 -1.9669,4.75262 -1.2547,1.24938 -2.9816,1.97033 -4.7526,1.97033 z m 0,0"
         style="fill:#0059b0;fill-opacity:1;fill-rule:nonzero;stroke:none;stroke-width:0.44796306"
         id="path8-7-4-4"
         inkscape:connector-curvature="0" />
      <path
         d="m 2466.0501,-235.40759 c -2.6248,-2.62478 -6.8786,-2.62478 -9.5035,0 l -20.6937,20.6938 v 19.00693 l 30.1972,-30.19901 c 2.6248,-2.62303 2.6248,-6.87868 0,-9.50172 z m 0,0"
         style="fill:#00335c;fill-opacity:1;fill-rule:nonzero;stroke:none;stroke-width:0.44796306"
         id="path28-1-9-3"
         inkscape:connector-curvature="0" />
      <text
         xml:space="preserve"
         style="font-style:normal;font-variant:normal;font-weight:bold;font-stretch:normal;font-size:93.41003418px;line-height:1.25;font-family:sans-serif;-inkscape-font-specification:'sans-serif, Bold';font-variant-ligatures:normal;font-variant-caps:normal;font-variant-numeric:normal;font-feature-settings:normal;text-align:start;letter-spacing:0px;word-spacing:0px;writing-mode:lr-tb;text-anchor:start;fill:#0059b0;fill-opacity:1;stroke:none;stroke-width:2.33524656"
         x="2214.845"
         y="-173.21078"
         id="text175-2-1-5"><tspan
           sodipodi:role="line"
           id="tspan173-1-5-0"
           x="2214.845"
           y="-173.21078"
           style="font-style:normal;font-variant:normal;font-weight:bold;font-stretch:normal;font-size:93.41003418px;font-family:sans-serif;-inkscape-font-specification:'sans-serif, Bold';font-variant-ligatures:normal;font-variant-caps:normal;font-variant-numeric:normal;font-feature-settings:normal;text-align:start;writing-mode:lr-tb;text-anchor:start;fill:#0059b0;fill-opacity:1;stroke-width:2.33524656">1</tspan></text>
      <text
         xml:space="preserve"
         style="font-style:normal;font-variant:normal;font-weight:bold;font-stretch:normal;font-size:94.02485657px;line-height:1.25;font-family:sans-serif;-inkscape-font-specification:'sans-serif, Bold';font-variant-ligatures:normal;font-variant-caps:normal;font-variant-numeric:normal;font-feature-settings:normal;text-align:start;letter-spacing:0px;word-spacing:0px;writing-mode:lr-tb;text-anchor:start;fill:#00335c;fill-opacity:1;stroke:none;stroke-width:2.35062337"
         x="2267.2407"
         y="-174.35666"
         id="text179-9-7-6"><tspan
           sodipodi:role="line"
           id="tspan177-7-7-3"
           x="2267.2407"
           y="-174.35666"
           style="font-style:normal;font-variant:normal;font-weight:bold;font-stretch:normal;font-size:94.02485657px;font-family:sans-serif;-inkscape-font-specification:'sans-serif, Bold';font-variant-ligatures:normal;font-variant-caps:normal;font-variant-numeric:normal;font-feature-settings:normal;text-align:start;writing-mode:lr-tb;text-anchor:start;fill:#00335c;fill-opacity:1;stroke-width:2.35062337">0</tspan></text>
      <text
         id="text4731"
         y="-174.51602"
         x="2330.5007"
         style="font-style:normal;font-variant:normal;font-weight:bold;font-stretch:normal;font-size:93.41003418px;line-height:1.25;font-family:sans-serif;-inkscape-font-specification:'sans-serif, Bold';font-variant-ligatures:normal;font-variant-caps:normal;font-variant-numeric:normal;font-feature-settings:normal;text-align:start;letter-spacing:0px;word-spacing:0px;writing-mode:lr-tb;text-anchor:start;fill:#0059b0;fill-opacity:1;stroke:none;stroke-width:2.33524656"
         xml:space="preserve"><tspan
           style="font-style:normal;font-variant:normal;font-weight:bold;font-stretch:normal;font-size:93.41003418px;font-family:sans-serif;-inkscape-font-specification:'sans-serif, Bold';font-variant-ligatures:normal;font-variant-caps:normal;font-variant-numeric:normal;font-feature-settings:normal;text-align:start;writing-mode:lr-tb;text-anchor:start;fill:#0059b0;fill-opacity:1;stroke-width:2.33524656"
           y="-174.51602"
           x="2330.5007"
           id="tspan4729"
           sodipodi:role="line">0</tspan></text>
    </g>
  </g>
</svg>
