<?xml version="1.0" encoding="UTF-8" standalone="no"?>
<!-- Created with Inkscape (http://www.inkscape.org/) -->

<svg
   xmlns:dc="http://purl.org/dc/elements/1.1/"
   xmlns:cc="http://creativecommons.org/ns#"
   xmlns:rdf="http://www.w3.org/1999/02/22-rdf-syntax-ns#"
   xmlns:svg="http://www.w3.org/2000/svg"
   xmlns="http://www.w3.org/2000/svg"
   xmlns:sodipodi="http://sodipodi.sourceforge.net/DTD/sodipodi-0.dtd"
   xmlns:inkscape="http://www.inkscape.org/namespaces/inkscape"
   width="8.5140839mm"
   height="8.5140839mm"
   viewBox="0 0 8.5140839 8.5140839"
   version="1.1"
   id="svg1270"
   inkscape:version="0.92.4 (5da689c313, 2019-01-14)"
   sodipodi:docname="img_status_75.svg">
  <defs
     id="defs1264" />
  <sodipodi:namedview
     id="base"
     pagecolor="#ffffff"
     bordercolor="#666666"
     borderopacity="1.0"
     inkscape:pageopacity="0.0"
     inkscape:pageshadow="2"
     inkscape:zoom="0.35"
     inkscape:cx="-288.19611"
     inkscape:cy="27.518173"
     inkscape:document-units="mm"
     inkscape:current-layer="layer1"
     showgrid="false"
     fit-margin-top="0"
     fit-margin-left="0"
     fit-margin-right="0"
     fit-margin-bottom="0"
     inkscape:window-width="1366"
     inkscape:window-height="705"
     inkscape:window-x="-8"
     inkscape:window-y="-8"
     inkscape:window-maximized="1" />
  <metadata
     id="metadata1267">
    <rdf:RDF>
      <cc:Work
         rdf:about="">
        <dc:format>image/svg+xml</dc:format>
        <dc:type
           rdf:resource="http://purl.org/dc/dcmitype/StillImage" />
        <dc:title></dc:title>
      </cc:Work>
    </rdf:RDF>
  </metadata>
  <g
     inkscape:label="Capa 1"
     inkscape:groupmode="layer"
     id="layer1"
     transform="translate(-42.612006,-147.6001)">
    <g
       id="g146"
       transform="matrix(0.01662907,0,0,0.01662907,18.237745,155.4138)">
      <path
         d="m 1721.7621,-469.882 c -68.3828,0 -132.6679,26.62891 -181.0195,74.98047 -48.3516,48.35156 -74.9805,112.64062 -74.9805,181.01953 0,45.00391 11.8516,89.27344 34.2735,128.027339 2.7812,4.8086 7.8203,7.49219 13,7.49219 2.5429,0 5.1211,-0.64844 7.4843,-2.01172 l 69.5821,-40.171869 c 3.4453,-1.99219 5.9609,-5.26953 6.9882,-9.11328 1.0274,-3.84766 0.4883,-7.94532 -1.5078,-11.39063 -12.75,-22.03516 -19.4882,-47.22266 -19.4882,-72.83203 0,-80.32031 65.3476,-145.66797 145.6679,-145.66797 8.2813,0 15,-6.71484 15,-15 V -454.882 c 0,-8.28515 -6.7187,-15 -15,-15 z m 0,0"
         style="fill:#ebf5ff;fill-opacity:1;fill-rule:nonzero;stroke:none"
         id="path89"
         inkscape:connector-curvature="0" />
      <path
         d="m 1902.7817,-394.90153 c -48.3555,-48.35156 -112.6406,-74.98047 -181.0196,-74.98047 -8.2851,0 -15,6.71485 -15,15 v 80.33203 c 0,8.28516 6.7149,15 15,15 80.3204,0 145.6641,65.34766 145.6641,145.66797 0,80.32031 -65.3437,145.664059 -145.6641,145.664059 -8.1874,0 -48.4004,-6.03375 -69.2344,-17.55748 -23.1496,-12.80454 -42.978,-32.626339 -57.4106,-54.797489 -9.7255,-14.94014 -15.4022,-33.51654 -18.1081,-50.32128 -2.5444,-18.79587 -2.0752,-36.9233 2.0456,-54.69689 2.4665,-10.63834 5.0443,-19.00068 10.2647,-28.03995 6.6272,-11.47524 12.0206,-25.58173 21.8029,-35.39716 11.6087,-11.64803 28.5354,-25.7276 45.1062,-35.14725 8.4879,-4.82492 17.2501,-7.0309 27.2883,-10.6425 0.9837,-0.35391 3.22,-1.01335 3.9951,-3.18885 1.2961,-3.63738 0.2772,-4.30383 -0.441,-7.60982 -2.7796,-20.08843 -3.8761,-28.01134 -4.2242,-69.89863 -0.6337,-0.80775 0.6142,-17.43957 -4.0274,-21.31599 -6.7804,-5.66275 -19.1073,-5.98806 -24.7172,-3.66905 -15.6351,4.0454 -5.7494,1.17118 -19.7792,6.03792 -21.583,7.54276 -42.0106,19.33665 -49.675,24.20431 -17.0068,10.80105 -33.9634,26.29069 -47.0872,39.01219 -15.9038,15.41629 -28.9915,33.884 -39.7628,53.23789 -10.8644,19.52105 -19.0218,40.72511 -24.4987,62.38405 -4.4469,17.58562 -6.4889,35.87964 -6.5768,54.01858 -0.1311,27.07733 1.7518,54.64935 9.0361,80.72881 5.9494,21.30028 16.2806,41.371179 27.8552,60.215979 12.2592,19.95938 26.6264,38.95306 43.5449,55.15269 13.2982,12.73307 39.5294,29.2097202 44.795,32.3133602 39.1914,23.1015598 84.0782,35.3124998 129.8086,35.3124998 68.379,0 132.6641,-26.62891 181.0196,-74.98047 48.3515,-48.35156 74.9804,-112.640619 74.9804,-181.019529 0,-68.37891 -26.6289,-132.66797 -74.9804,-181.01953 z"
         style="fill:#7fd197;fill-opacity:1;fill-rule:nonzero;stroke:none"
         id="path97"
         inkscape:connector-curvature="0"
         sodipodi:nodetypes="cssssssaacsssassccsccssaaaaaacscsc" />
      <path
         d="m 1902.7817,-394.90153 c -48.3555,-48.35156 -112.6406,-74.98047 -181.0196,-74.98047 -8.2851,0 -15,6.71485 -15,15 v 80.33203 c 0,8.28516 6.7149,15 15,15 80.3204,0 145.6641,65.34766 145.6641,145.66797 0,79.01423 -63.2358,143.537469 -141.7579,145.612439 -0.6734,0.0178 -22.7563,-1.45327 -33.7407,-4.25464 -17.5963,-4.48764 -34.817,-8.32745 -50.7131,-19.9025 -10.8018,-7.865529 -30.4193,-23.531329 -42.8506,-43.224279 -8.8128,-13.96077 -17.5859,-37.01787 -20.8905,-56.97378 -1.2939,-7.81345 -1.8625,-18.11098 -1.6039,-27.18458 0.2293,-8.04839 2.8561,-23.99291 2.7934,-23.99291 0,0 -2.9839,-4.43558 -5.1286,-5.92796 -3.0183,-2.10027 -6.8143,-2.79395 -10.331,-3.86836 -25.094,-7.66663 -76.5584,-18.30866 -76.5584,-18.30866 0,0 -5.7782,-0.59055 -8.5466,0.0824 -2.296,0.55812 -6.3287,3.19309 -6.3287,3.19309 0.079,0 -3.9575,20.25991 -4.7271,30.52857 -1.2605,16.81783 -1.2996,36.54842 0.2029,50.59457 2.8805,26.92824 11.4883,56.41014 15.5949,66.45139 7.9017,19.32071 19.8435,40.595759 29.4712,53.953509 10.7131,14.86372 24.8628,32.48021 39.9825,46.07951 11.4775,10.32333 29.2918,21.99802022 37.9884,26.4880002 12.269,6.3343898 25.3112,13.6071998 37.0882,18.3776998 15.1055,6.11874 28.2504,9.0885 36.2995,10.97907 32.4282,7.61673 67.4207,7.13798 69.2183,7.06162 64.2029,-2.72706 124.1695,-29.0246 169.8933,-74.74463 48.3515,-48.35156 74.9804,-112.640619 74.9804,-181.019529 0,-68.37891 -26.6289,-132.66797 -74.9804,-181.01953 z"
         style="fill:#00b34a;fill-opacity:1;fill-rule:nonzero;stroke:none"
         id="path99"
         inkscape:connector-curvature="0"
         sodipodi:nodetypes="cssssssasssacaacacasssasssscscc" />
      <path
         d="m 1721.7621,42.117999 c -8.2851,0 -15,-6.71484 -15,-15 v -80.33594 c 0,-8.28125 6.7149,-15 15,-15 8.2813,0 15,6.71875 15,15 v 80.33594 c 0,8.28516 -6.7187,15 -15,15 z m 0,0"
         style="fill:#00874a;fill-opacity:1;fill-rule:nonzero;stroke:none"
         id="path101"
         inkscape:connector-curvature="0" />
      <path
         d="m 1842.2739,9.8328392 c -5.1836,0 -10.2266,-2.6875 -13.0039,-7.5 l -40.1641,-69.5742202 c -4.1445,-7.17187 -1.6836,-16.34765 5.4883,-20.48828 7.1758,-4.14453 16.3476,-1.68359 20.4922,5.48828 l 40.164,69.57422 c 4.1446,7.1718802 1.6836,16.3476602 -5.4883,20.4882802 -2.3632,1.36329 -4.9414,2.01172 -7.4882,2.01172 z m 0,0"
         style="fill:#00874a;fill-opacity:1;fill-rule:nonzero;stroke:none"
         id="path103"
         inkscape:connector-curvature="0" />
      <path
         d="m 1930.4614,-78.378091 c -2.5469,0 -5.125,-0.64844 -7.4844,-2.01563 l -69.5703,-40.164059 c -7.1758,-4.14453 -9.6328,-13.31641 -5.4922,-20.49219 4.1445,-7.17578 13.3164,-9.63672 20.4922,-5.48828 l 69.5703,40.16797 c 7.1719,4.14062 9.6328,13.312499 5.4883,20.488279 -2.7774,4.8125 -7.8203,7.50391 -13.0039,7.50391 z m 0,0"
         style="fill:#00874a;fill-opacity:1;fill-rule:nonzero;stroke:none"
         id="path105"
         inkscape:connector-curvature="0" />
      <path
         d="m 1962.7621,-198.882 h -80.3359 c -8.2812,0 -15,-6.71484 -15,-15 0,-8.28516 6.7188,-15 15,-15 h 80.3359 c 8.2813,0 15,6.71484 15,15 0,8.28516 -6.7187,15 -15,15 z m 0,0"
         style="fill:#00874a;fill-opacity:1;fill-rule:nonzero;stroke:none"
         id="path107"
         inkscape:connector-curvature="0" />
      <path
         d="m 1859.4184,-282.21403 c -5.1836,0 -10.2266,-2.6875 -13.0039,-7.50391 -4.1445,-7.17187 -1.6836,-16.34765 5.4883,-20.48828 l 69.5703,-40.16406 c 7.1719,-4.14844 16.3476,-1.6875 20.4883,5.48828 4.1445,7.17578 1.6836,16.34766 -5.4883,20.48828 l -69.5703,40.16797 c -2.3594,1.36328 -4.9414,2.01172 -7.4844,2.01172 z m 0,0"
         style="fill:#00874a;fill-opacity:1;fill-rule:nonzero;stroke:none"
         id="path109"
         inkscape:connector-curvature="0" />
      <path
         d="m 1794.5825,-342.52263 c -2.5469,0 -5.125,-0.64453 -7.4844,-2.01171 -7.1758,-4.14063 -9.6367,-13.31641 -5.4922,-20.48828 l 40.168,-69.57032 c 4.1406,-7.17578 13.3125,-9.63671 20.4882,-5.49218 7.1758,4.14453 9.6329,13.3164 5.4883,20.49218 l -40.164,69.57032 c -2.7774,4.81249 -7.8203,7.49999 -13.0039,7.49999 z m 0,0"
         style="fill:#00874a;fill-opacity:1;fill-rule:nonzero;stroke:none"
         id="path111"
         inkscape:connector-curvature="0" />
      <path
         d="m 1536.6344,-388.95568 c 0.6278,-2.47191 1.9007,-4.81545 3.8218,-6.77109 5.8348,-5.93762 15.4457,-6.02656 21.4605,-0.20065 l 58.3594,56.47641 c 6.0159,5.82214 6.1667,15.3544 0.3269,21.29479 -5.8336,5.93388 -15.4456,6.02659 -21.4604,0.20067 l -58.3595,-56.47643 c -4.0321,-3.90845 -5.4291,-9.48114 -4.1487,-14.5237 z m 0,0"
         style="fill:#00b34a;fill-opacity:1;fill-rule:nonzero;stroke:none;stroke-width:1.00784779"
         id="path113"
         inkscape:connector-curvature="0" />
      <path
         d="m 1778.3461,-174.12216 c -1.8655,0 -3.7291,-0.71169 -5.1525,-2.13503 -2.8467,-2.84478 -2.8467,-7.46021 0,-10.30501 l 55.1954,-55.19538 c 2.8448,-2.84668 7.4602,-2.84668 10.305,0 2.8467,2.84479 2.8467,7.46023 0,10.30501 l -55.1954,55.19538 c -1.4233,1.42334 -3.2888,2.13503 -5.1525,2.13503 z m 0,0"
         style="fill:#0059b0;fill-opacity:1;fill-rule:nonzero;stroke:none;stroke-width:0.48583472"
         id="path4-5-7"
         inkscape:connector-curvature="0" />
      <path
         d="m 1828.0227,-179.64285 c -1.9186,0 -3.7993,-0.77619 -5.1544,-2.13312 -1.355,-1.35882 -2.1331,-3.23573 -2.1331,-5.15439 0,-1.91868 0.7781,-3.79369 2.1331,-5.15441 1.3551,-1.35503 3.2358,-2.13311 5.1544,-2.13311 1.9187,0 3.7956,0.77808 5.1506,2.13311 1.3608,1.36072 2.137,3.23573 2.137,5.15441 0,1.91866 -0.7781,3.79557 -2.137,5.15439 -1.355,1.35693 -3.2319,2.13312 -5.1506,2.13312 z m 0,0"
         style="fill:#00335c;fill-opacity:1;fill-rule:nonzero;stroke:none;stroke-width:0.48583472"
         id="path6-9-9"
         inkscape:connector-curvature="0" />
      <path
         d="m 1783.8649,-223.79497 c -1.9187,0 -3.7937,-0.7819 -5.1544,-2.13691 -1.355,-1.35503 -2.1331,-3.23573 -2.1331,-5.15441 0,-1.91487 0.7781,-3.79559 2.1331,-5.1506 1.3607,-1.36073 3.2357,-2.13692 5.1544,-2.13692 1.9206,0 3.7956,0.77619 5.1544,2.13692 1.355,1.35501 2.1331,3.23573 2.1331,5.1506 0,1.91868 -0.7781,3.79938 -2.1331,5.15441 -1.3607,1.35501 -3.2338,2.13691 -5.1544,2.13691 z m 0,0"
         style="fill:#0059b0;fill-opacity:1;fill-rule:nonzero;stroke:none;stroke-width:0.48583472"
         id="path8-7-4"
         inkscape:connector-curvature="0" />
      <path
         d="m 1838.694,-241.75758 c -2.8467,-2.84668 -7.4602,-2.84668 -10.3069,0 l -22.4433,22.44329 v 20.61381 l 32.7502,-32.75209 c 2.8467,-2.84478 2.8467,-7.46022 0,-10.30501 z m 0,0"
         style="fill:#00335c;fill-opacity:1;fill-rule:nonzero;stroke:none;stroke-width:0.48583472"
         id="path28-1-9"
         inkscape:connector-curvature="0" />
      <text
         xml:space="preserve"
         style="font-style:normal;font-variant:normal;font-weight:bold;font-stretch:normal;font-size:93.41003418px;line-height:1.25;font-family:sans-serif;-inkscape-font-specification:'sans-serif, Bold';font-variant-ligatures:normal;font-variant-caps:normal;font-variant-numeric:normal;font-feature-settings:normal;text-align:start;letter-spacing:0px;word-spacing:0px;writing-mode:lr-tb;text-anchor:start;fill:#0059b0;fill-opacity:1;stroke:none;stroke-width:2.33524656"
         x="1618.9663"
         y="-174.54205"
         id="text175-2-1"><tspan
           sodipodi:role="line"
           id="tspan173-1-5"
           x="1618.9663"
           y="-174.54205"
           style="font-style:normal;font-variant:normal;font-weight:bold;font-stretch:normal;font-size:93.41003418px;font-family:sans-serif;-inkscape-font-specification:'sans-serif, Bold';font-variant-ligatures:normal;font-variant-caps:normal;font-variant-numeric:normal;font-feature-settings:normal;text-align:start;writing-mode:lr-tb;text-anchor:start;fill:#0059b0;fill-opacity:1;stroke-width:2.33524656">7</tspan></text>
      <text
         xml:space="preserve"
         style="font-style:normal;font-variant:normal;font-weight:bold;font-stretch:normal;font-size:94.02485657px;line-height:1.25;font-family:sans-serif;-inkscape-font-specification:'sans-serif, Bold';font-variant-ligatures:normal;font-variant-caps:normal;font-variant-numeric:normal;font-feature-settings:normal;text-align:start;letter-spacing:0px;word-spacing:0px;writing-mode:lr-tb;text-anchor:start;fill:#00335c;fill-opacity:1;stroke:none;stroke-width:2.35062337"
         x="1682.8264"
         y="-175.15225"
         id="text179-9-7"><tspan
           sodipodi:role="line"
           id="tspan177-7-7"
           x="1682.8264"
           y="-175.15225"
           style="font-style:normal;font-variant:normal;font-weight:bold;font-stretch:normal;font-size:94.02485657px;font-family:sans-serif;-inkscape-font-specification:'sans-serif, Bold';font-variant-ligatures:normal;font-variant-caps:normal;font-variant-numeric:normal;font-feature-settings:normal;text-align:start;writing-mode:lr-tb;text-anchor:start;fill:#00335c;fill-opacity:1;stroke-width:2.35062337">5</tspan></text>
      <path
         inkscape:connector-curvature="0"
         id="path1085"
         style="fill:#00874a;fill-opacity:1;fill-rule:nonzero;stroke:none"
         d="m 1578.6648,-1.7143108 c -6.5022,-5.13486 -7.6102,-14.5662302 -2.4753,-21.0683202 l 49.7895,-63.04654 c 5.1324,-6.49901 14.5662,-7.61011 21.0682,-2.47531 6.499,5.13248 7.6078,14.56931 2.4752,21.0683 l -49.7894,63.0465502 c -5.1348,6.50208 -14.5691,7.60778 -21.0682,2.47532 z m 0,0" />
      <path
         d="m 1489.6521,-106.3365 c -3.5331,-7.49412 -0.323,-16.43124 7.1714,-19.96433 l 72.6654,-34.25765 c 7.4906,-3.5314 16.4313,-0.32272 19.9643,7.17128 3.5313,7.49061 0.319,16.43295 -7.1714,19.96427 l -72.6654,34.257729 c -7.4941,3.53307 -16.4328,0.31934 -19.9643,-7.171299 z m 0,0"
         style="fill:#00874a;fill-opacity:1;fill-rule:nonzero;stroke:none"
         id="path1087"
         inkscape:connector-curvature="0" />
      <path
         inkscape:connector-curvature="0"
         id="path1089"
         style="fill:#00874a;fill-opacity:1;fill-rule:nonzero;stroke:none"
         d="m 1470.5776,-265.77232 c 1.7137,-8.10605 9.672,-13.2869 17.7783,-11.57306 l 78.5986,16.61661 c 8.1022,1.7129 13.2867,9.67229 11.573,17.77818 -1.7129,8.10216 -9.6761,13.28585 -17.7782,11.57301 l -78.5986,-16.61655 c -8.1061,-1.71368 -13.2859,-9.67588 -11.5731,-17.77819 z m 0,0" />
    </g>
  </g>
</svg>
