<?xml version="1.0" encoding="UTF-8" standalone="no"?>
<!-- Created with Inkscape (http://www.inkscape.org/) -->

<svg
   xmlns:dc="http://purl.org/dc/elements/1.1/"
   xmlns:cc="http://creativecommons.org/ns#"
   xmlns:rdf="http://www.w3.org/1999/02/22-rdf-syntax-ns#"
   xmlns:svg="http://www.w3.org/2000/svg"
   xmlns="http://www.w3.org/2000/svg"
   xmlns:sodipodi="http://sodipodi.sourceforge.net/DTD/sodipodi-0.dtd"
   xmlns:inkscape="http://www.inkscape.org/namespaces/inkscape"
   width="8.5140829mm"
   height="8.5140839mm"
   viewBox="0 0 8.5140829 8.5140839"
   version="1.1"
   id="svg1190"
   inkscape:version="0.92.4 (5da689c313, 2019-01-14)"
   sodipodi:docname="img_status_50.svg">
  <defs
     id="defs1184" />
  <sodipodi:namedview
     id="base"
     pagecolor="#ffffff"
     bordercolor="#666666"
     borderopacity="1.0"
     inkscape:pageopacity="0.0"
     inkscape:pageshadow="2"
     inkscape:zoom="0.35"
     inkscape:cx="-642.48183"
     inkscape:cy="84.661039"
     inkscape:document-units="mm"
     inkscape:current-layer="layer1"
     showgrid="false"
     fit-margin-top="0"
     fit-margin-left="0"
     fit-margin-right="0"
     fit-margin-bottom="0"
     inkscape:window-width="1366"
     inkscape:window-height="705"
     inkscape:window-x="-8"
     inkscape:window-y="-8"
     inkscape:window-maximized="1" />
  <metadata
     id="metadata1187">
    <rdf:RDF>
      <cc:Work
         rdf:about="">
        <dc:format>image/svg+xml</dc:format>
        <dc:type
           rdf:resource="http://purl.org/dc/dcmitype/StillImage" />
        <dc:title></dc:title>
      </cc:Work>
    </rdf:RDF>
  </metadata>
  <g
     inkscape:label="Capa 1"
     inkscape:groupmode="layer"
     id="layer1"
     transform="translate(-136.3501,-162.71915)">
    <g
       id="g123"
       transform="matrix(0.01662907,0,0,0.01662907,122.26703,170.53285)">
      <path
         inkscape:connector-curvature="0"
         id="path61"
         style="fill:#ebf5ff;fill-opacity:1;fill-rule:nonzero;stroke:none"
         d="m 1102.8947,-469.88199 c -68.3828,0 -132.66793,26.6289 -181.01949,74.98046 -48.35156,48.35157 -74.98047,112.64062 -74.98047,181.01953 0,45.00391 11.85156,89.27344 34.27344,128.027339 2.78125,4.8086 7.82031,7.49219 13,7.49219 2.54297,0 5.12109,-0.64844 7.48437,-2.01172 l 69.58203,-40.171869 c 3.44532,-1.99219 5.96094,-5.26953 6.98828,-9.11328 1.02735,-3.84766 0.48829,-7.94532 -1.50781,-11.39063 -12.75,-22.03516 -19.48828,-47.22266 -19.48828,-72.83203 0,-80.32031 65.34763,-145.66796 145.66793,-145.66796 8.2813,0 15,-6.71484 15,-15 v -80.33203 c 0,-8.28516 -6.7187,-15 -15,-15 z m 0,0" />
      <path
         inkscape:connector-curvature="0"
         id="path69"
         style="fill:#7fd197;fill-opacity:1;fill-rule:nonzero;stroke:none"
         d="m 1283.9143,-394.90153 c -48.3555,-48.35156 -112.6406,-74.98046 -181.0196,-74.98046 -8.2851,0 -15,6.71484 -15,15 v 80.33203 c 0,8.28516 6.7149,15 15,15 80.3204,0 145.6641,65.34765 145.6641,145.66796 0,80.32031 -65.3437,145.664059 -145.6641,145.664059 -51.8359,0 -100.1835,-27.90625 -126.17965,-72.828119 -4.14453,-7.16797 -13.3125,-9.61719 -20.48047,-5.48047 l -69.58203,40.17187 c -3.44531,1.98828 -5.96094,5.26953 -6.98828,9.113279 -1.02734,3.84375 -0.48828,7.94141 1.50781,11.38672 22.10547,38.20703 53.88672,70.2461 91.91407,92.6601602 39.19145,23.1015598 84.07815,35.3124998 129.80855,35.3124998 68.379,0 132.6641,-26.62891 181.0196,-74.98047 48.3515,-48.35156 74.9804,-112.640619 74.9804,-181.019529 0,-68.37891 -26.6289,-132.66796 -74.9804,-181.01953 z m 0,0" />
      <path
         inkscape:connector-curvature="0"
         id="path71"
         style="fill:#00b34a;fill-opacity:1;fill-rule:nonzero;stroke:none"
         d="m 1283.9143,-394.90153 c -48.3555,-48.35156 -112.6406,-74.98046 -181.0196,-74.98046 -8.2851,0 -15,6.71484 -15,15 v 80.33203 c 0,8.28516 6.7149,15 15,15 80.3204,0 145.6641,65.34765 145.6641,145.66796 0,80.32031 -65.3437,145.664059 -145.6641,145.664059 v 110.33594 c 68.379,0 132.6641,-26.62891 181.0196,-74.98047 48.3515,-48.35156 74.9804,-112.640619 74.9804,-181.019529 0,-68.37891 -26.6289,-132.66796 -74.9804,-181.01953 z m 0,0" />
      <path
         inkscape:connector-curvature="0"
         id="path73"
         style="fill:#00874a;fill-opacity:1;fill-rule:nonzero;stroke:none"
         d="m 1102.8947,42.117999 c -8.2851,0 -15,-6.71484 -15,-15 v -80.33594 c 0,-8.28125 6.7149,-15 15,-15 8.2813,0 15,6.71875 15,15 v 80.33594 c 0,8.28516 -6.7187,15 -15,15 z m 0,0" />
      <path
         inkscape:connector-curvature="0"
         id="path75"
         style="fill:#00874a;fill-opacity:1;fill-rule:nonzero;stroke:none"
         d="m 1223.4065,9.8328392 c -5.1836,0 -10.2266,-2.6875 -13.0039,-7.5 l -40.1641,-69.5742202 c -4.1445,-7.17187 -1.6836,-16.34765 5.4883,-20.48828 7.1758,-4.14453 16.3476,-1.68359 20.4922,5.48828 l 40.164,69.57422 c 4.1446,7.1718802 1.6836,16.3476602 -5.4883,20.4882802 -2.3632,1.36329 -4.9414,2.01172 -7.4882,2.01172 z m 0,0" />
      <path
         inkscape:connector-curvature="0"
         id="path77"
         style="fill:#00874a;fill-opacity:1;fill-rule:nonzero;stroke:none"
         d="m 1311.594,-78.378091 c -2.5469,0 -5.125,-0.64844 -7.4844,-2.01563 l -69.5703,-40.164059 c -7.1758,-4.14453 -9.6328,-13.31641 -5.4922,-20.49219 4.1445,-7.17578 13.3164,-9.63672 20.4922,-5.48828 l 69.5703,40.16797 c 7.1719,4.14062 9.6328,13.312499 5.4883,20.488279 -2.7774,4.8125 -7.8203,7.50391 -13.0039,7.50391 z m 0,0" />
      <path
         inkscape:connector-curvature="0"
         id="path79"
         style="fill:#00874a;fill-opacity:1;fill-rule:nonzero;stroke:none"
         d="m 1343.8947,-198.882 h -80.3359 c -8.2812,0 -15,-6.71484 -15,-15 0,-8.28516 6.7188,-15 15,-15 h 80.3359 c 8.2813,0 15,6.71484 15,15 0,8.28516 -6.7187,15 -15,15 z m 0,0" />
      <path
         inkscape:connector-curvature="0"
         id="path81"
         style="fill:#00874a;fill-opacity:1;fill-rule:nonzero;stroke:none"
         d="m 1242.051,-279.21403 c -5.1836,0 -10.2266,-2.6875 -13.0039,-7.50391 -4.1445,-7.17187 -1.6836,-16.34765 5.4883,-20.48828 l 69.5703,-40.16405 c 7.1719,-4.14844 16.3476,-1.6875 20.4883,5.48828 4.1445,7.17578 1.6836,16.34766 -5.4883,20.48828 l -69.5703,40.16796 c -2.3594,1.36328 -4.9414,2.01172 -7.4844,2.01172 z m 0,0" />
      <path
         inkscape:connector-curvature="0"
         id="path83"
         style="fill:#00874a;fill-opacity:1;fill-rule:nonzero;stroke:none"
         d="m 1183.2151,-338.02262 c -2.5469,0 -5.125,-0.64453 -7.4844,-2.01171 -7.1758,-4.14063 -9.6367,-13.31641 -5.4922,-20.48828 l 40.168,-69.57032 c 4.1406,-7.17578 13.3125,-9.63672 20.4882,-5.49219 7.1758,4.14453 9.6329,13.31641 5.4883,20.49219 l -40.164,69.57032 c -2.7774,4.81249 -7.8203,7.49999 -13.0039,7.49999 z m 0,0" />
      <path
         inkscape:connector-curvature="0"
         id="path85"
         style="fill:#00b34a;fill-opacity:1;fill-rule:nonzero;stroke:none"
         d="m 982.37911,9.8328392 c -2.54296,0 -5.12109,-0.64843 -7.48437,-2.01172 -7.17578,-4.14062 -9.63281,-13.3164 -5.48828,-20.4882802 l 40.16404,-69.57422 c 4.1407,-7.17187 13.3125,-9.63281 20.4922,-5.48828 7.1719,4.14063 9.6328,13.31641 5.4883,20.48828 L 995.38693,2.3328392 c -2.78125,4.8086 -7.82032,7.5 -13.00782,7.5 z m 0,0" />
      <path
         d="m 1151.5458,-173.75101 c -1.8655,0 -3.7292,-0.71169 -5.1525,-2.13503 -2.8467,-2.84478 -2.8467,-7.46021 0,-10.30501 l 55.1954,-55.19538 c 2.8448,-2.84668 7.4602,-2.84668 10.305,0 2.8467,2.84479 2.8467,7.46023 0,10.30501 l -55.1954,55.19538 c -1.4233,1.42334 -3.2889,2.13503 -5.1525,2.13503 z m 0,0"
         style="fill:#0059b0;fill-opacity:1;fill-rule:nonzero;stroke:none;stroke-width:0.48583472"
         id="path4-5"
         inkscape:connector-curvature="0" />
      <path
         d="m 1201.2224,-179.2717 c -1.9186,0 -3.7993,-0.77619 -5.1544,-2.13312 -1.355,-1.35882 -2.1331,-3.23573 -2.1331,-5.15439 0,-1.91868 0.7781,-3.79369 2.1331,-5.15441 1.3551,-1.35503 3.2358,-2.13311 5.1544,-2.13311 1.9187,0 3.7956,0.77808 5.1506,2.13311 1.3608,1.36072 2.137,3.23573 2.137,5.15441 0,1.91866 -0.7781,3.79557 -2.137,5.15439 -1.355,1.35693 -3.2319,2.13312 -5.1506,2.13312 z m 0,0"
         style="fill:#00335c;fill-opacity:1;fill-rule:nonzero;stroke:none;stroke-width:0.48583472"
         id="path6-9"
         inkscape:connector-curvature="0" />
      <path
         d="m 1157.0646,-223.42382 c -1.9187,0 -3.7937,-0.7819 -5.1544,-2.13691 -1.355,-1.35503 -2.1331,-3.23573 -2.1331,-5.15441 0,-1.91487 0.7781,-3.79559 2.1331,-5.1506 1.3607,-1.36073 3.2357,-2.13692 5.1544,-2.13692 1.9206,0 3.7956,0.77619 5.1544,2.13692 1.355,1.35501 2.1331,3.23573 2.1331,5.1506 0,1.91868 -0.7781,3.79938 -2.1331,5.15441 -1.3607,1.35501 -3.2338,2.13691 -5.1544,2.13691 z m 0,0"
         style="fill:#0059b0;fill-opacity:1;fill-rule:nonzero;stroke:none;stroke-width:0.48583472"
         id="path8-7"
         inkscape:connector-curvature="0" />
      <path
         d="m 1211.8937,-241.38643 c -2.8467,-2.84668 -7.4602,-2.84668 -10.3069,0 l -22.4433,22.44329 v 20.61381 l 32.7502,-32.75209 c 2.8467,-2.84478 2.8467,-7.46022 0,-10.30501 z m 0,0"
         style="fill:#00335c;fill-opacity:1;fill-rule:nonzero;stroke:none;stroke-width:0.48583472"
         id="path28-1"
         inkscape:connector-curvature="0" />
      <text
         xml:space="preserve"
         style="font-style:normal;font-variant:normal;font-weight:bold;font-stretch:normal;font-size:93.41003418px;line-height:1.25;font-family:sans-serif;-inkscape-font-specification:'sans-serif, Bold';font-variant-ligatures:normal;font-variant-caps:normal;font-variant-numeric:normal;font-feature-settings:normal;text-align:start;letter-spacing:0px;word-spacing:0px;writing-mode:lr-tb;text-anchor:start;fill:#0059b0;fill-opacity:1;stroke:none;stroke-width:2.33524656"
         x="992.16595"
         y="-174.1709"
         id="text175-2"><tspan
           sodipodi:role="line"
           id="tspan173-1"
           x="992.16595"
           y="-174.1709"
           style="font-style:normal;font-variant:normal;font-weight:bold;font-stretch:normal;font-size:93.41003418px;font-family:sans-serif;-inkscape-font-specification:'sans-serif, Bold';font-variant-ligatures:normal;font-variant-caps:normal;font-variant-numeric:normal;font-feature-settings:normal;text-align:start;writing-mode:lr-tb;text-anchor:start;fill:#0059b0;fill-opacity:1;stroke-width:2.33524656">5</tspan></text>
      <text
         xml:space="preserve"
         style="font-style:normal;font-variant:normal;font-weight:bold;font-stretch:normal;font-size:94.02485657px;line-height:1.25;font-family:sans-serif;-inkscape-font-specification:'sans-serif, Bold';font-variant-ligatures:normal;font-variant-caps:normal;font-variant-numeric:normal;font-feature-settings:normal;text-align:start;letter-spacing:0px;word-spacing:0px;writing-mode:lr-tb;text-anchor:start;fill:#00335c;fill-opacity:1;stroke:none;stroke-width:2.35062337"
         x="1056.026"
         y="-174.78108"
         id="text179-9"><tspan
           sodipodi:role="line"
           id="tspan177-7"
           x="1056.026"
           y="-174.78108"
           style="font-style:normal;font-variant:normal;font-weight:bold;font-stretch:normal;font-size:94.02485657px;font-family:sans-serif;-inkscape-font-specification:'sans-serif, Bold';font-variant-ligatures:normal;font-variant-caps:normal;font-variant-numeric:normal;font-feature-settings:normal;text-align:start;writing-mode:lr-tb;text-anchor:start;fill:#00335c;fill-opacity:1;stroke-width:2.35062337">0</tspan></text>
    </g>
  </g>
</svg>
