<?xml version="1.0" encoding="UTF-8" standalone="no"?>
<!-- Created with Inkscape (http://www.inkscape.org/) -->

<svg
   xmlns:dc="http://purl.org/dc/elements/1.1/"
   xmlns:cc="http://creativecommons.org/ns#"
   xmlns:rdf="http://www.w3.org/1999/02/22-rdf-syntax-ns#"
   xmlns:svg="http://www.w3.org/2000/svg"
   xmlns="http://www.w3.org/2000/svg"
   xmlns:sodipodi="http://sodipodi.sourceforge.net/DTD/sodipodi-0.dtd"
   xmlns:inkscape="http://www.inkscape.org/namespaces/inkscape"
   width="8.5645075mm"
   height="4.9487405mm"
   viewBox="0 0 8.5645075 4.9487405"
   version="1.1"
   id="svg1580"
   inkscape:version="0.92.4 (5da689c313, 2019-01-14)"
   sodipodi:docname="img_status_enviado.svg">
  <defs
     id="defs1574" />
  <sodipodi:namedview
     id="base"
     pagecolor="#ffffff"
     bordercolor="#666666"
     borderopacity="1.0"
     inkscape:pageopacity="0.0"
     inkscape:pageshadow="2"
     inkscape:zoom="0.35"
     inkscape:cx="-433.81511"
     inkscape:cy="-10.648062"
     inkscape:document-units="mm"
     inkscape:current-layer="layer1"
     showgrid="false"
     fit-margin-top="0"
     fit-margin-left="0"
     fit-margin-right="0"
     fit-margin-bottom="0"
     inkscape:window-width="1366"
     inkscape:window-height="705"
     inkscape:window-x="-8"
     inkscape:window-y="-8"
     inkscape:window-maximized="1" />
  <metadata
     id="metadata1577">
    <rdf:RDF>
      <cc:Work
         rdf:about="">
        <dc:format>image/svg+xml</dc:format>
        <dc:type
           rdf:resource="http://purl.org/dc/dcmitype/StillImage" />
        <dc:title></dc:title>
      </cc:Work>
    </rdf:RDF>
  </metadata>
  <g
     inkscape:label="Capa 1"
     inkscape:groupmode="layer"
     id="layer1"
     transform="translate(-81.140366,-141.06729)">
    <g
       id="g1506"
       transform="matrix(0.01755576,0,0,0.01755576,80.981012,139.04738)"
       inkscape:export-filename="E:\INDECOPI\2019\GENERACION DE DOCUMENTOS\Fuentes TODOS Plantillas\prjConfirResolucionesDSD\public_html\imagenes\img_status_enviado.png"
       inkscape:export-xdpi="95.699997"
       inkscape:export-ydpi="95.699997">
      <g
         id="g1460">
        <path
           id="path1458"
           d="M 486.923,396.943 H 76.487 c -5.523,0 -10,-4.477 -10,-10 V 126.766 c 0,-5.523 4.477,-10 10,-10 h 410.436 c 5.523,0 10,4.477 10,10 v 260.177 c 0,5.523 -4.477,10 -10,10 z"
           class="st6"
           inkscape:connector-curvature="0"
           style="fill:#fce575" />
      </g>
      <g
         id="g1464">
        <path
           id="path1462"
           d="M 125.896,385.061 V 128.648 c 0,-6.562 5.32,-11.882 11.882,-11.882 H 78.369 c -6.562,0 -11.882,5.32 -11.882,11.882 v 256.414 c 0,6.562 5.32,11.882 11.882,11.882 h 59.409 c -6.563,-0.001 -11.882,-5.32 -11.882,-11.883 z"
           class="st7"
           inkscape:connector-curvature="0"
           style="fill:#ffd551" />
      </g>
      <g
         id="g1468">
        <path
           id="path1466"
           d="m 66.487,124.899 v 24.487 L 264.69,266.423 c 10.497,6.198 23.533,6.198 34.03,0 L 496.923,149.386 v -24.487 c 0,-5.436 -4.407,-9.842 -9.842,-9.842 H 76.33 c -5.436,0 -9.843,4.406 -9.843,9.842 z"
           class="st1"
           inkscape:connector-curvature="0"
           style="fill:#ffc34c" />
      </g>
      <g
         id="g1472">
        <path
           id="path1470"
           d="m 342.836,240.994 -44.454,26.25 c -10.497,6.198 -23.533,6.198 -34.03,0 L 220.723,241.481 71.2,391.003 c -1.862,1.862 -0.54,5.045 2.092,5.041 l 416.835,-0.634 c 2.628,-0.004 3.942,-3.182 2.083,-5.041 z"
           class="st7"
           inkscape:connector-curvature="0"
           style="fill:#ffd551" />
      </g>
      <g
         id="g1476">
        <path
           id="path1474"
           d="m 125.896,149.386 v -24.487 c 0,-5.436 4.406,-9.842 9.842,-9.842 H 76.329 c -5.436,0 -9.842,4.406 -9.842,9.842 v 24.487 L 264.69,266.423 c 10.497,6.198 23.533,6.198 34.03,0 l 12.689,-7.493 z"
           class="st2"
           inkscape:connector-curvature="0"
           style="fill:#f9bb32" />
      </g>
      <g
         id="g1480">
        <path
           id="path1478"
           d="m 133.035,395.953 c -4.2,-1.832 -7.139,-6.016 -7.139,-10.891 V 336.308 L 71.2,391.003 c -0.837,0.837 -1.026,1.941 -0.746,2.902 0.993,0.89 2.13,1.62 3.382,2.138 z"
           class="st1"
           inkscape:connector-curvature="0"
           style="fill:#ffc34c" />
      </g>
      <g
         id="g1484">
        <path
           id="path1482"
           d="M 174.195,345.33 H 15.077 c -3.313,0 -6,-2.686 -6,-6 0,-3.314 2.687,-6 6,-6 h 159.119 c 3.313,0 6,2.686 6,6 0,3.314 -2.687,6 -6.001,6 z"
           class="st20"
           inkscape:connector-curvature="0"
           style="fill:#a56021" />
      </g>
      <g
         id="g1488">
        <path
           id="path1486"
           d="M 287.383,375.33 H 15.077 c -3.313,0 -6,-2.687 -6,-6 0,-3.313 2.687,-6 6,-6 h 272.306 c 3.313,0 6,2.687 6,6 0,3.313 -2.687,6 -6,6 z"
           class="st20"
           inkscape:connector-curvature="0"
           style="fill:#a56021" />
      </g>
      <g
         id="g1492">
        <path
           id="path1490"
           d="M 108.58,315.33 H 15.077 c -3.313,0 -6,-2.686 -6,-6 0,-3.314 2.687,-6 6,-6 h 93.503 c 3.313,0 6,2.686 6,6 0,3.314 -2.687,6 -6,6 z"
           class="st20"
           inkscape:connector-curvature="0"
           style="fill:#a56021" />
      </g>
      <g
         id="g1496">
        <circle
           id="circle1494"
           r="18.791"
           cy="140.008"
           cx="170.157"
           class="st2"
           style="fill:#f9bb32" />
      </g>
      <g
         id="g1500">
        <circle
           id="circle1498"
           r="18.791"
           cy="261.46701"
           cx="151.366"
           class="st17"
           style="fill:#ffdf74" />
      </g>
      <g
         id="g1504">
        <path
           id="path1502"
           d="m 473.217,334.488 c -3.313,0 -6,-2.686 -6,-6 V 193.064 c 0,-3.314 2.687,-6 6,-6 3.313,0 6,2.686 6,6 v 135.424 c 0,3.314 -2.687,6 -6,6 z"
           class="st8"
           inkscape:connector-curvature="0"
           style="fill:#fff4c1" />
      </g>
    </g>
  </g>
</svg>
