<?xml version="1.0" encoding="UTF-8" standalone="no"?>
<!-- Created with Inkscape (http://www.inkscape.org/) -->

<svg
   xmlns:dc="http://purl.org/dc/elements/1.1/"
   xmlns:cc="http://creativecommons.org/ns#"
   xmlns:rdf="http://www.w3.org/1999/02/22-rdf-syntax-ns#"
   xmlns:svg="http://www.w3.org/2000/svg"
   xmlns="http://www.w3.org/2000/svg"
   xmlns:sodipodi="http://sodipodi.sourceforge.net/DTD/sodipodi-0.dtd"
   xmlns:inkscape="http://www.inkscape.org/namespaces/inkscape"
   width="8.5140839mm"
   height="8.5252533mm"
   viewBox="0 0 8.5140839 8.5252533"
   version="1.1"
   id="svg1119"
   inkscape:version="0.92.4 (5da689c313, 2019-01-14)"
   sodipodi:docname="img_status_25.svg">
  <defs
     id="defs1113" />
  <sodipodi:namedview
     id="base"
     pagecolor="#ffffff"
     bordercolor="#666666"
     borderopacity="1.0"
     inkscape:pageopacity="0.0"
     inkscape:pageshadow="2"
     inkscape:zoom="0.35"
     inkscape:cx="-268.19611"
     inkscape:cy="-38.174995"
     inkscape:document-units="mm"
     inkscape:current-layer="layer1"
     showgrid="false"
     fit-margin-top="0"
     fit-margin-left="0"
     fit-margin-right="0"
     fit-margin-bottom="0"
     inkscape:window-width="1366"
     inkscape:window-height="705"
     inkscape:window-x="-8"
     inkscape:window-y="-8"
     inkscape:window-maximized="1" />
  <metadata
     id="metadata1116">
    <rdf:RDF>
      <cc:Work
         rdf:about="">
        <dc:format>image/svg+xml</dc:format>
        <dc:type
           rdf:resource="http://purl.org/dc/dcmitype/StillImage" />
        <dc:title></dc:title>
      </cc:Work>
    </rdf:RDF>
  </metadata>
  <g
     inkscape:label="Capa 1"
     inkscape:groupmode="layer"
     id="layer1"
     transform="translate(-37.320339,-130.20761)">
    <g
       id="g103"
       transform="matrix(0.01662907,0,0,0.01662907,33.131364,138.04181)">
      <path
         d="m 507.90678,-471.1146 c -68.38281,0 -132.66797,26.62891 -181.01953,74.98048 -48.35157,48.35156 -74.98047,112.64061 -74.98047,181.01952 0,45.00391 12.36333,89.66475 34.27344,128.027347 21.94768,38.428394 54.70411,72.581644 93.01713,94.7301248 C 418.16726,30.171111 464.8996,41.938861 509.91096,41.547661 550.91018,41.191331 627.7893,8.9632118 628.4185,8.6002518 L 578.66927,-87.821323 c -12.91991,6.12906 -46.85407,18.703464 -71.53697,19.174784 -23.43829,0.44756 -50.87559,-8.230194 -68.57536,-15.601324 -23.10586,-9.62252 -43.41941,-34.513797 -56.82985,-58.034707 -12.44762,-21.83221 -19.48828,-47.22266 -19.48828,-72.83203 0,-80.32031 65.34766,-145.66796 145.66797,-145.66796 8.28125,0 15,-6.71484 15,-15 v -80.33203 c 0,-8.28516 -6.71875,-15.00001 -15,-15.00001 z"
         style="fill:#ebf5ff;fill-opacity:1;fill-rule:nonzero;stroke:none"
         id="path2"
         inkscape:connector-curvature="0"
         sodipodi:nodetypes="sssaaaccasasssss" />
      <path
         d="m 554.94939,-173.04447 c -1.86553,0 -3.72916,-0.71169 -5.15251,-2.13503 -2.84668,-2.84478 -2.84668,-7.46021 0,-10.30501 l 55.19539,-55.19538 c 2.84478,-2.84668 7.46021,-2.84668 10.305,0 2.84668,2.84479 2.84668,7.46023 0,10.30501 l -55.19538,55.19538 c -1.42334,1.42334 -3.28887,2.13503 -5.1525,2.13503 z m 0,0"
         style="fill:#0059b0;fill-opacity:1;fill-rule:nonzero;stroke:none;stroke-width:0.48583472"
         id="path4"
         inkscape:connector-curvature="0" />
      <path
         d="m 604.62598,-178.56516 c -1.91867,0 -3.79937,-0.77619 -5.1544,-2.13312 -1.35503,-1.35882 -2.13312,-3.23573 -2.13312,-5.15439 0,-1.91868 0.77809,-3.79369 2.13312,-5.15441 1.35503,-1.35503 3.23573,-2.13311 5.1544,-2.13311 1.91867,0 3.79558,0.77808 5.1506,2.13311 1.36073,1.36072 2.13692,3.23573 2.13692,5.15441 0,1.91866 -0.77809,3.79557 -2.13692,5.15439 -1.35502,1.35693 -3.23193,2.13312 -5.1506,2.13312 z m 0,0"
         style="fill:#00335c;fill-opacity:1;fill-rule:nonzero;stroke:none;stroke-width:0.48583472"
         id="path6"
         inkscape:connector-curvature="0" />
      <path
         d="m 560.46816,-222.71728 c -1.91866,0 -3.79368,-0.7819 -5.1544,-2.13691 -1.35502,-1.35503 -2.13312,-3.23573 -2.13312,-5.15441 0,-1.91487 0.7781,-3.79559 2.13312,-5.1506 1.36072,-1.36073 3.23574,-2.13692 5.1544,-2.13692 1.92056,0 3.79559,0.77619 5.15441,2.13692 1.35502,1.35501 2.13312,3.23573 2.13312,5.1506 0,1.91868 -0.7781,3.79938 -2.13312,5.15441 -1.36072,1.35501 -3.23385,2.13691 -5.15441,2.13691 z m 0,0"
         style="fill:#0059b0;fill-opacity:1;fill-rule:nonzero;stroke:none;stroke-width:0.48583472"
         id="path8"
         inkscape:connector-curvature="0" />
      <path
         d="m 688.92631,-396.13412 c -48.35547,-48.35157 -112.64062,-74.98048 -181.01953,-74.98048 -8.28516,0 -15,6.71485 -15,15.00001 v 80.33203 c 0,8.28516 6.71484,15 15,15 80.32031,0 145.66406,65.34765 145.66406,145.66796 0,22.17244 -7.5851,52.09465 -20.64663,74.19468 -12.87513,21.78465 -49.7849,51.528317 -54.25494,53.098597 -4.40133,4.25712 -1.98777,13.81401 -0.98447,15.789104 15.04176,29.61121 15.88618,30.38839 39.39001,75.8744708 0.41752,0.80801 2.2184,3.32163 3.93685,4.1451 2.23413,1.07056 5.8251,1.27535 7.40684,0.6129 20.49629,-11.43324 43.45473,-25.6436108 60.50781,-42.6953108 48.35156,-48.351564 74.98047,-112.640631 74.98047,-181.019541 0,-68.37891 -26.62891,-132.66796 -74.98047,-181.01952 z"
         style="fill:#7fd197;fill-opacity:1;fill-rule:nonzero;stroke:none"
         id="path10"
         inkscape:connector-curvature="0"
         sodipodi:nodetypes="csssssacssaccsc" />
      <path
         d="m 688.92631,-396.13412 c -48.35547,-48.35157 -112.64062,-74.98048 -181.01953,-74.98048 -8.28516,0 -15,6.71485 -15,15.00001 v 80.33203 c 0,8.28516 6.71484,15 15,15 80.32031,0 145.66406,65.34765 145.66406,145.66796 11.24218,0.78906 0,0 110.33594,0 0,-68.37891 -26.62891,-132.66796 -74.98047,-181.01952 z"
         style="fill:#00b34a;fill-opacity:1;fill-rule:nonzero;stroke:none"
         id="path12"
         inkscape:connector-curvature="0"
         sodipodi:nodetypes="cssssccc" />
      <path
         d="m 716.606,-79.610683 c -2.54688,0 -5.125,-0.64844 -7.48438,-2.01563 l -69.57031,-40.164067 c -7.17578,-4.14453 -9.63281,-13.31641 -5.49219,-20.49219 4.14453,-7.17578 13.31641,-9.63672 20.49219,-5.48828 l 69.57031,40.16797 c 7.17188,4.14062 9.63282,13.312507 5.48828,20.488287 -2.77734,4.8125 -7.82031,7.50391 -13.0039,7.50391 z m 0,0"
         style="fill:#00b34a;fill-opacity:1;fill-rule:nonzero;stroke:none"
         id="path18"
         inkscape:connector-curvature="0" />
      <path
         d="m 748.90678,-200.1146 h -80.33594 c -8.28125,0 -15,-6.71484 -15,-15 0,-8.28516 6.71875,-15 15,-15 h 80.33594 c 8.28125,0 15,6.71484 15,15 0,8.28516 -6.71875,15 -15,15 z m 0,0"
         style="fill:#00874a;fill-opacity:1;fill-rule:nonzero;stroke:none"
         id="path20"
         inkscape:connector-curvature="0" />
      <path
         d="m 647.06303,-280.44663 c -5.18359,0 -10.22656,-2.6875 -13.00391,-7.50391 -4.14453,-7.17187 -1.68359,-16.34765 5.48828,-20.48828 l 69.57032,-40.16405 c 7.17187,-4.14844 16.34765,-1.6875 20.48828,5.48828 4.14453,7.17578 1.68359,16.34765 -5.48828,20.48827 l -69.57032,40.16797 c -2.35937,1.36328 -4.9414,2.01172 -7.48437,2.01172 z m 0,0"
         style="fill:#00874a;fill-opacity:1;fill-rule:nonzero;stroke:none"
         id="path22"
         inkscape:connector-curvature="0" />
      <path
         d="m 588.22709,-339.25522 c -2.54687,0 -5.125,-0.64453 -7.48437,-2.01171 -7.17578,-4.14063 -9.63672,-13.31641 -5.49219,-20.48828 l 40.16797,-69.57032 c 4.14062,-7.17578 13.3125,-9.63672 20.48828,-5.49219 7.17578,4.14453 9.63281,13.31641 5.48828,20.49219 l -40.16406,69.57032 c -2.77735,4.81249 -7.82031,7.49999 -13.00391,7.49999 z m 0,0"
         style="fill:#00874a;fill-opacity:1;fill-rule:nonzero;stroke:none"
         id="path24"
         inkscape:connector-curvature="0" />
      <path
         d="m 615.29727,-240.67989 c -2.8467,-2.84668 -7.46022,-2.84668 -10.30691,0 l -22.44329,22.44329 v 20.61381 l 32.7502,-32.75209 c 2.84668,-2.84478 2.84668,-7.46022 0,-10.30501 z m 0,0"
         style="fill:#00335c;fill-opacity:1;fill-rule:nonzero;stroke:none;stroke-width:0.48583472"
         id="path28"
         inkscape:connector-curvature="0" />
      <text
         xml:space="preserve"
         style="font-style:normal;font-variant:normal;font-weight:bold;font-stretch:normal;font-size:93.41003418px;line-height:1.25;font-family:sans-serif;-inkscape-font-specification:'sans-serif, Bold';font-variant-ligatures:normal;font-variant-caps:normal;font-variant-numeric:normal;font-feature-settings:normal;text-align:start;letter-spacing:0px;word-spacing:0px;writing-mode:lr-tb;text-anchor:start;fill:#0059b0;fill-opacity:1;stroke:none;stroke-width:2.33524656"
         x="395.56958"
         y="-173.46434"
         id="text175"><tspan
           sodipodi:role="line"
           id="tspan173"
           x="395.56958"
           y="-173.46434"
           style="font-style:normal;font-variant:normal;font-weight:bold;font-stretch:normal;font-size:93.41003418px;font-family:sans-serif;-inkscape-font-specification:'sans-serif, Bold';font-variant-ligatures:normal;font-variant-caps:normal;font-variant-numeric:normal;font-feature-settings:normal;text-align:start;writing-mode:lr-tb;text-anchor:start;fill:#0059b0;fill-opacity:1;stroke-width:2.33524656">2</tspan></text>
      <text
         xml:space="preserve"
         style="font-style:normal;font-variant:normal;font-weight:bold;font-stretch:normal;font-size:94.02485657px;line-height:1.25;font-family:sans-serif;-inkscape-font-specification:'sans-serif, Bold';font-variant-ligatures:normal;font-variant-caps:normal;font-variant-numeric:normal;font-feature-settings:normal;text-align:start;letter-spacing:0px;word-spacing:0px;writing-mode:lr-tb;text-anchor:start;fill:#00335c;fill-opacity:1;stroke:none;stroke-width:2.35062337"
         x="459.42966"
         y="-174.07452"
         id="text179"><tspan
           sodipodi:role="line"
           id="tspan177"
           x="459.42966"
           y="-174.07452"
           style="font-style:normal;font-variant:normal;font-weight:bold;font-stretch:normal;font-size:94.02485657px;font-family:sans-serif;-inkscape-font-specification:'sans-serif, Bold';font-variant-ligatures:normal;font-variant-caps:normal;font-variant-numeric:normal;font-feature-settings:normal;text-align:start;writing-mode:lr-tb;text-anchor:start;fill:#00335c;fill-opacity:1;stroke-width:2.35062337">5</tspan></text>
    </g>
  </g>
</svg>
